# Blender 5.1.1
# www.blender.org
mtllib Key.mtl
o Cube
v -0.050000 0.700000 0.050000
v 0.000000 0.930000 -0.050000
v 0.000000 1.000000 -0.050000
v -0.050000 0.000000 0.050000
v 0.000000 0.930000 0.000000
v 0.000000 0.930000 0.050000
v -0.050000 0.608411 0.050000
v 0.000000 1.000000 0.050000
v 0.000000 0.169694 -0.050000
v 0.000000 0.278037 -0.050000
v 0.000000 0.608411 -0.069537
v 0.000000 0.556075 -0.069537
v -0.050000 0.556075 0.050000
v 0.000000 0.556075 -0.050000
v 0.000000 0.608411 -0.050000
v 0.000000 0.000000 -0.050000
v -0.068485 0.608411 0.068485
v -0.068485 0.556075 0.068485
v -0.050000 0.278037 0.050000
v 0.000000 0.700000 -0.050000
v -0.050000 0.169694 0.050000
v 0.000000 0.770000 -0.050000
v 0.050000 0.700000 0.050000
v 0.050000 0.000000 0.050000
v 0.050000 0.608411 0.050000
v 0.050000 0.556075 0.050000
v 0.068485 0.608411 0.068485
v 0.068485 0.556075 0.068485
v 0.050000 0.278037 0.050000
v 0.050000 0.169694 0.050000
v -0.050000 0.700000 -0.050000
v 0.000000 0.169694 0.050000
v 0.000000 0.278037 0.050000
v -0.050000 0.000000 -0.050000
v 0.000000 0.608411 0.069537
v -0.050000 0.608411 -0.050000
v 0.000000 0.770000 0.000000
v 0.000000 0.556075 0.069537
v 0.000000 0.556075 0.050000
v -0.050000 0.556075 -0.050000
v 0.000000 0.608411 0.050000
v 0.000000 0.000000 0.050000
v -0.068485 0.608411 -0.068485
v -0.068485 0.556075 -0.068485
v -0.050000 0.278037 -0.050000
v 0.000000 0.700000 0.050000
v -0.050000 0.169694 -0.050000
v 0.000000 0.770000 0.050000
v 0.050000 0.700000 -0.050000
v 0.050000 0.000000 -0.050000
v 0.050000 0.608411 -0.050000
v 0.050000 0.556075 -0.050000
v 0.068485 0.608411 -0.068485
v 0.068485 0.556075 -0.068485
v 0.050000 0.278037 -0.050000
v 0.050000 0.169694 -0.050000
v -0.039995 0.700000 0.050000
v 0.039995 0.700000 0.050000
v -0.040000 1.000000 0.050000
v 0.040000 1.000000 0.050000
v 0.039996 0.000000 0.050000
v -0.039996 0.000000 0.050000
v 0.039996 0.750000 0.000000
v -0.039996 0.750000 0.000000
v -0.040000 0.950000 0.000000
v 0.040000 0.950000 0.000000
v -0.040000 0.950000 0.050000
v 0.040000 0.950000 0.050000
v 0.039995 0.750000 0.050000
v -0.039995 0.750000 0.050000
v -0.039994 0.608411 0.050000
v 0.039994 0.608411 0.050000
v -0.039994 0.556075 0.050000
v 0.039994 0.556075 0.050000
v 0.047991 0.556075 0.069537
v -0.047991 0.556075 0.069537
v -0.047991 0.608411 0.069537
v 0.047991 0.608411 0.069537
v -0.039995 0.278037 0.050000
v 0.039995 0.278037 0.050000
v -0.039996 0.169694 0.050000
v 0.039996 0.169694 0.050000
v 0.039995 0.700000 -0.050000
v -0.039995 0.700000 -0.050000
v 0.040000 1.000000 -0.050000
v -0.040000 1.000000 -0.050000
v -0.039996 0.000000 -0.050000
v 0.039996 0.000000 -0.050000
v 0.040000 0.950000 -0.050000
v -0.040000 0.950000 -0.050000
v -0.039995 0.750000 -0.050000
v 0.039995 0.750000 -0.050000
v 0.039994 0.608411 -0.050000
v -0.039994 0.608411 -0.050000
v 0.039994 0.556075 -0.050000
v -0.039994 0.556075 -0.050000
v -0.047991 0.556075 -0.069537
v 0.047991 0.556075 -0.069537
v 0.047991 0.608411 -0.069537
v -0.047991 0.608411 -0.069537
v 0.039995 0.278037 -0.050000
v -0.039995 0.278037 -0.050000
v 0.039996 0.169694 -0.050000
v -0.039996 0.169694 -0.050000
v -0.197367 0.700000 0.050000
v -0.250000 0.755443 0.050000
v -0.197367 1.000000 0.050000
v -0.250000 0.944557 0.050000
v -0.164135 0.750000 0.000000
v -0.216667 0.805233 0.000000
v -0.216667 0.894767 0.000000
v -0.164135 0.950000 0.000000
v -0.164034 0.750000 0.050000
v -0.216667 0.805443 0.050000
v -0.164034 0.950000 0.050000
v -0.216667 0.894557 0.050000
v 0.250000 0.755443 0.050000
v 0.197367 0.700000 0.050000
v 0.250000 0.944557 0.050000
v 0.197367 1.000000 0.050000
v 0.216667 0.805233 0.000000
v 0.164135 0.750000 0.000000
v 0.164135 0.950000 0.000000
v 0.216667 0.894767 0.000000
v 0.216667 0.805443 0.050000
v 0.164034 0.750000 0.050000
v 0.216667 0.894557 0.050000
v 0.164034 0.950000 0.050000
v -0.250000 0.755443 -0.050000
v -0.197367 0.700000 -0.050000
v -0.250000 0.944557 -0.050000
v -0.197367 1.000000 -0.050000
v -0.216667 0.805443 -0.050000
v -0.164034 0.750000 -0.050000
v -0.216667 0.894557 -0.050000
v -0.164034 0.950000 -0.050000
v 0.197367 0.700000 -0.050000
v 0.250000 0.755443 -0.050000
v 0.197367 1.000000 -0.050000
v 0.250000 0.944557 -0.050000
v 0.164034 0.750000 -0.050000
v 0.216667 0.805443 -0.050000
v 0.164034 0.950000 -0.050000
v 0.216667 0.894557 -0.050000
v 0.000000 1.000000 -0.014032
v 0.000000 1.000000 0.014032
v -0.050000 0.000000 -0.014031
v -0.050000 0.000000 0.014031
v -0.050000 0.700000 0.014031
v -0.050000 0.700000 -0.014031
v -0.050000 0.608411 -0.014030
v -0.050000 0.608411 0.014030
v -0.050000 0.556075 -0.014030
v -0.050000 0.556075 0.014030
v -0.071280 0.608411 -0.014030
v -0.071280 0.608411 0.014030
v -0.071280 0.556075 -0.014030
v -0.071280 0.556075 0.014030
v -0.050000 0.278037 -0.014031
v -0.050000 0.278037 0.014031
v -0.050000 0.169694 0.014031
v -0.050000 0.169694 -0.014031
v 0.050000 0.000000 0.014031
v 0.050000 0.000000 -0.014031
v 0.050000 0.700000 -0.014031
v 0.050000 0.700000 0.014031
v 0.050000 0.608411 0.014030
v 0.050000 0.608411 -0.014030
v 0.050000 0.556075 0.014030
v 0.050000 0.556075 -0.014030
v 0.071280 0.608411 0.014030
v 0.071280 0.608411 -0.014030
v 0.071280 0.556075 0.014030
v 0.071280 0.556075 -0.014030
v 0.050000 0.278037 0.014031
v 0.050000 0.278037 -0.014031
v 0.050000 0.169694 -0.014031
v 0.050000 0.169694 0.014031
v 0.000000 0.000000 -0.014031
v 0.000000 0.000000 0.014031
v -0.039997 0.000000 0.014031
v -0.039997 0.000000 -0.014031
v 0.039997 0.000000 -0.014031
v 0.039997 0.000000 0.014031
v 0.040000 1.000000 0.014032
v 0.040000 1.000000 -0.014032
v -0.040000 1.000000 -0.014032
v -0.040000 1.000000 0.014032
v -0.197440 1.000000 0.014032
v -0.197440 1.000000 -0.014032
v -0.250000 0.944708 -0.014031
v -0.250000 0.944708 0.014031
v -0.250000 0.755292 0.014031
v -0.250000 0.755292 -0.014031
v -0.197440 0.700000 -0.014031
v -0.197440 0.700000 0.014031
v 0.250000 0.944708 0.014031
v 0.250000 0.944708 -0.014031
v 0.197440 1.000000 -0.014032
v 0.197440 1.000000 0.014032
v 0.197440 0.700000 0.014031
v 0.197440 0.700000 -0.014031
v 0.250000 0.755292 -0.014031
v 0.250000 0.755292 0.014031
v 0.150000 0.169694 -0.014031
v 0.150000 0.169694 0.014031
v 0.150000 0.278037 0.014031
v 0.150000 0.278037 -0.014031
v -0.050000 0.241923 0.050000
v -0.050000 0.205809 0.050000
v 0.050000 0.241923 0.050000
v 0.050000 0.205809 0.050000
v 0.000000 0.241923 0.050000
v 0.000000 0.205809 0.050000
v -0.050000 0.241923 -0.050000
v -0.050000 0.205809 -0.050000
v 0.000000 0.241923 -0.050000
v 0.000000 0.205809 -0.050000
v 0.050000 0.241923 -0.050000
v 0.050000 0.205809 -0.050000
v 0.039996 0.205809 0.050000
v 0.039996 0.241923 0.050000
v -0.039996 0.241923 0.050000
v -0.039996 0.205809 0.050000
v -0.039996 0.205809 -0.050000
v -0.039996 0.241923 -0.050000
v 0.039996 0.241923 -0.050000
v 0.039996 0.205809 -0.050000
v -0.050000 0.241923 -0.014031
v -0.050000 0.205809 -0.014031
v -0.050000 0.205809 0.014031
v -0.050000 0.241923 0.014031
v 0.050000 0.241923 0.014031
v 0.050000 0.205809 0.014031
v 0.050000 0.205809 -0.014031
v 0.050000 0.241923 -0.014031
v 0.150000 0.241923 0.014031
v 0.150000 0.205809 0.014031
v 0.150000 0.205809 -0.014031
v 0.150000 0.241923 -0.014031
v 0.100000 0.169694 -0.014031
v 0.100000 0.169694 0.014031
v 0.100000 0.278037 0.014031
v 0.100000 0.278037 -0.014031
v 0.100000 0.205809 -0.014031
v 0.100000 0.241923 -0.014031
v 0.100000 0.241923 0.014031
v 0.100000 0.205809 0.014031
vn -0.0000 -0.0000 1.0000
vn -0.0000 -0.0000 -1.0000
vn 0.4472 -0.8944 -0.0000
vn -0.4472 -0.8944 -0.0000
vn -0.0000 -1.0000 -0.0000
vn -0.0000 1.0000 -0.0000
vn 0.4473 0.8944 -0.0000
vn -0.4473 0.8944 -0.0000
vn -0.0513 -0.0000 0.9987
vn 0.0513 -0.0000 0.9987
vn 0.0513 -0.0000 -0.9987
vn -0.0513 -0.0000 -0.9987
vn 0.7249 -0.6888 -0.0022
vn 0.7249 0.6888 -0.0022
vn -0.7249 -0.6888 -0.0022
vn -0.7249 0.6888 -0.0022
vn 0.7249 -0.6888 0.0022
vn 0.7249 0.6888 0.0022
vn -0.7249 -0.6888 0.0022
vn -0.7249 0.6888 0.0022
vn 1.0000 -0.0000 -0.0000
vn -1.0000 -0.0000 -0.0000
vn -0.7248 -0.6890 -0.0000
vn -0.7248 0.6890 -0.0000
vn 0.7248 -0.6890 -0.0000
vn 0.7248 0.6890 -0.0000
vn -0.9987 -0.0000 0.0513
vn -0.9987 -0.0000 -0.0513
vn 0.9987 -0.0000 0.0513
vn 0.9987 -0.0000 -0.0513
vn -0.7250 0.6887 0.0022
vn -0.7250 0.6887 -0.0022
vn -0.7250 -0.6887 -0.0022
vn -0.7250 -0.6887 0.0022
vn 0.7250 0.6887 0.0022
vn 0.7250 0.6887 -0.0022
vn 0.7250 -0.6887 -0.0022
vn 0.7250 -0.6887 0.0022
vt 0.645790 0.713790
vt 0.596787 0.692873
vt 0.403212 0.692891
vt 0.370047 0.889945
vt 0.370048 0.889945
vt 0.370047 0.889944
vt 0.370048 0.889946
vt 0.370048 0.889945
vt 0.370048 0.889946
vt 0.370048 0.889946
vt 0.370048 0.889946
vt 0.370047 0.889944
vt 0.367594 0.884963
vt 0.367594 0.884963
vt 0.403212 0.692890
vt 0.367594 0.884963
vt 0.375000 0.900000
vt 0.375000 0.900000
vt 0.370048 0.889946
vt 0.370048 0.889946
vt 0.537131 0.000000
vt 0.537306 0.000000
vt 0.587334 0.206025
vt 0.587342 0.206422
vt 0.462869 0.000000
vt 0.421202 0.000000
vt 0.375000 0.118424
vt 0.412658 0.206422
vt 0.578798 0.000000
vt 0.638106 0.171004
vt 0.462694 0.000000
vt 0.412666 0.206025
vt 0.375000 0.118424
vt 0.638106 0.171004
vt 0.375000 0.125891
vt 0.375000 0.125891
vt 0.375000 0.125892
vt 0.375000 0.125894
vt 0.375000 0.139150
vt 0.708790 0.574688
vt 0.708790 0.574688
vt 0.375000 0.139150
vt 0.375000 0.139150
vt 0.375000 0.125894
vt 0.375000 0.125892
vt 0.375000 0.125892
vt 0.235053 0.661468
vt 0.235053 0.661468
vt 0.235053 0.661468
vt 0.225000 0.660078
vt 0.421077 0.089922
vt 0.375000 0.132602
vt 0.375000 0.132602
vt 0.643756 0.213489
vt 0.578923 0.089921
vt 0.578923 0.089921
vt 0.421077 0.089922
vt 0.708790 0.650790
vt 0.235054 0.754952
vt 0.225000 0.750000
vt 0.375000 0.000000
vt 0.235054 0.754952
vt 0.375000 0.125892
s 0
usemtl Material.001
f 59/1/1 67/2/1 6/2/1 8/1/1
f 85/1/2 89/2/2 2/2/2 3/1/2
f 70/3/1 57/4/1 46/4/1 48/3/1
f 80/5/1 74/6/1 39/6/1 33/5/1
f 222/7/1 80/5/1 33/5/1 213/8/1
f 61/9/1 82/10/1 32/10/1 42/11/1
f 94/12/2 84/4/2 20/4/2 15/12/2
f 102/5/2 96/6/2 14/6/2 10/5/2
f 226/7/2 102/5/2 10/5/2 217/8/2
f 87/9/2 104/10/2 9/10/2 16/11/2
f 66/2/3 68/2/3 6/2/3 5/2/3
f 65/2/4 90/2/4 2/2/4 5/2/4
f 74/6/5 75/13/5 38/13/5 39/6/5
f 78/14/6 72/12/6 41/12/6 35/14/6
f 96/6/5 97/13/5 12/13/5 14/6/5
f 100/14/6 94/12/6 15/12/6 11/14/6
f 97/13/2 100/14/2 11/14/2 12/13/2
f 69/3/7 63/15/7 37/15/7 48/3/7
f 72/12/1 58/4/1 46/4/1 41/12/1
f 75/13/1 78/14/1 35/14/1 38/13/1
f 92/3/2 83/4/2 20/4/2 22/3/2
f 91/3/8 64/15/8 37/15/8 22/3/8
f 48/3/1 46/4/1 58/4/1 69/3/1
f 41/12/1 46/4/1 57/4/1 71/12/1
f 8/1/1 6/2/1 68/2/1 60/1/1
f 39/6/5 38/13/5 76/13/5 73/6/5
f 5/2/4 6/2/4 67/2/4 65/2/4
f 48/3/8 37/15/8 64/15/8 70/3/8
f 35/14/6 41/12/6 71/12/6 77/16/6
f 33/5/1 39/6/1 73/6/1 79/5/1
f 38/13/1 35/14/1 77/16/1 76/13/1
f 213/8/1 33/5/1 79/5/1 223/8/1
f 42/11/1 32/10/1 81/10/1 62/11/1
f 22/3/2 20/4/2 84/4/2 91/3/2
f 15/12/2 20/4/2 83/4/2 93/12/2
f 3/1/2 2/2/2 90/2/2 86/1/2
f 14/6/5 12/13/5 98/13/5 95/6/5
f 5/2/3 2/2/3 89/2/3 66/2/3
f 22/3/7 37/15/7 63/15/7 92/3/7
f 11/14/6 15/12/6 93/12/6 99/16/6
f 10/5/2 14/6/2 95/6/2 101/5/2
f 12/13/2 11/14/2 99/16/2 98/13/2
f 217/8/2 10/5/2 101/5/2 227/8/2
f 16/11/2 9/10/2 103/10/2 88/11/2
f 58/4/1 72/12/1 25/17/1 23/17/1
f 57/4/1 1/17/1 7/17/1 71/12/1
f 81/10/1 21/17/1 4/17/1 62/11/1
f 82/10/1 61/9/1 24/17/1 30/17/1
f 71/12/6 7/17/6 17/17/6 77/16/6
f 72/12/6 78/14/6 27/17/6 25/17/6
f 26/18/5 28/18/5 75/13/5 74/6/5
f 13/18/5 73/6/5 76/13/5 18/18/5
f 74/6/1 80/5/1 29/17/1 26/18/1
f 73/6/1 13/18/1 19/17/1 79/5/1
f 77/16/9 17/17/9 18/18/9 76/13/9
f 78/14/10 75/13/10 28/18/10 27/17/10
f 221/19/1 82/10/1 30/17/1 212/17/1
f 224/20/1 210/17/1 21/17/1 81/10/1
f 84/4/2 94/12/2 36/17/2 31/17/2
f 83/4/2 49/17/2 51/17/2 93/12/2
f 103/10/2 56/17/2 50/17/2 88/11/2
f 104/10/2 87/9/2 34/17/2 47/17/2
f 94/12/6 100/14/6 43/17/6 36/17/6
f 93/12/6 51/17/6 53/17/6 99/16/6
f 52/18/5 95/6/5 98/13/5 54/18/5
f 96/6/2 102/5/2 45/17/2 40/18/2
f 40/18/5 44/18/5 97/13/5 96/6/5
f 95/6/2 52/18/2 55/17/2 101/5/2
f 99/16/11 53/17/11 54/18/11 98/13/11
f 100/14/12 97/13/12 44/18/12 43/17/12
f 225/19/2 104/10/2 47/17/2 216/17/2
f 228/20/2 220/17/2 56/17/2 103/10/2
f 1/17/1 57/4/1 70/3/1
f 23/17/1 69/3/1 58/4/1
f 49/17/2 83/4/2 92/3/2
f 31/17/2 91/3/2 84/4/2
f 116/21/13 111/22/13 112/23/13 115/24/13
f 114/25/1 106/26/1 105/27/1 113/28/1
f 108/29/1 116/21/1 115/24/1 107/30/1
f 110/31/14 114/25/14 113/28/14 109/32/14
f 128/24/15 123/23/15 124/22/15 127/21/15
f 126/28/1 118/33/1 117/26/1 125/25/1
f 120/34/1 128/24/1 127/21/1 119/29/1
f 122/32/16 126/28/16 125/25/16 121/31/16
f 136/24/17 112/23/17 111/22/17 135/21/17
f 134/28/2 130/33/2 129/26/2 133/25/2
f 132/34/2 136/24/2 135/21/2 131/29/2
f 109/32/18 134/28/18 133/25/18 110/31/18
f 144/21/19 124/22/19 123/23/19 143/24/19
f 142/25/2 138/26/2 137/27/2 141/28/2
f 140/29/2 144/21/2 143/24/2 139/30/2
f 121/31/20 142/25/20 141/28/20 122/32/20
f 70/3/1 113/28/1 105/27/1 1/17/1
f 106/26/1 114/25/1 116/21/1 108/29/1
f 59/1/1 107/30/1 115/24/1 67/2/1
f 110/31/21 133/25/21 135/21/21 111/22/21
f 134/28/6 109/32/6 64/15/6 91/3/6
f 110/31/21 111/22/21 116/21/21 114/25/21
f 113/28/6 70/3/6 64/15/6 109/32/6
f 90/2/5 65/2/5 112/23/5 136/24/5
f 67/2/5 115/24/5 112/23/5 65/2/5
f 117/26/1 119/29/1 127/21/1 125/25/1
f 69/3/1 23/17/1 118/33/1 126/28/1
f 60/1/1 68/2/1 128/24/1 120/34/1
f 121/31/22 124/22/22 144/21/22 142/25/22
f 121/31/22 125/25/22 127/21/22 124/22/22
f 141/28/6 92/3/6 63/15/6 122/32/6
f 126/28/6 122/32/6 63/15/6 69/3/6
f 89/2/5 143/24/5 123/23/5 66/2/5
f 68/2/5 66/2/5 123/23/5 128/24/5
f 129/26/2 131/29/2 135/21/2 133/25/2
f 91/3/2 31/17/2 130/33/2 134/28/2
f 86/1/2 90/2/2 136/24/2 132/34/2
f 92/3/2 141/28/2 137/27/2 49/17/2
f 138/26/2 142/25/2 144/21/2 140/29/2
f 85/1/2 139/30/2 143/24/2 89/2/2
f 162/35/22 147/36/22 148/36/22 161/35/22
f 150/37/22 151/38/22 152/38/22 149/37/22
f 151/38/6 155/39/6 156/39/6 152/38/6
f 186/40/6 145/41/6 146/41/6 185/40/6
f 155/39/22 157/42/22 158/43/22 156/39/22
f 157/42/5 153/44/5 154/44/5 158/43/5
f 153/44/22 159/45/22 160/45/22 154/44/22
f 230/46/22 162/35/22 161/35/22 231/46/22
f 178/35/21 163/36/21 164/36/21 177/35/21
f 166/37/21 167/38/21 168/38/21 165/37/21
f 167/38/6 171/39/6 172/39/6 168/38/6
f 171/39/21 173/43/21 174/43/21 172/39/21
f 173/43/5 169/44/5 170/44/5 174/43/5
f 169/44/21 175/45/21 176/45/21 170/44/21
f 242/35/5 241/35/5 205/35/5 206/35/5
f 182/47/5 179/48/5 180/48/5 181/49/5
f 145/41/6 187/40/6 188/40/6 146/41/6
f 179/48/5 183/47/5 184/47/5 180/48/5
f 147/50/5 182/47/5 181/49/5 148/50/5
f 183/47/5 164/50/5 163/50/5 184/47/5
f 194/51/23 195/52/23 196/53/23 193/51/23
f 190/54/24 191/55/24 192/56/24 189/54/24
f 202/53/25 203/57/25 204/51/25 201/52/25
f 198/56/26 199/54/26 200/54/26 197/55/26
f 191/55/22 194/51/22 193/51/22 192/56/22
f 195/52/5 150/37/5 149/37/5 196/53/5
f 187/40/6 190/54/6 189/54/6 188/40/6
f 203/57/21 198/56/21 197/55/21 204/51/21
f 165/37/5 202/53/5 201/52/5 166/37/5
f 199/54/6 186/40/6 185/40/6 200/54/6
f 146/41/6 8/58/6 60/58/6 185/40/6
f 188/40/6 59/58/6 8/58/6 146/41/6
f 186/40/6 85/58/6 3/58/6 145/41/6
f 145/41/6 3/58/6 86/58/6 187/40/6
f 148/50/5 181/49/5 62/59/5 4/60/5
f 21/61/22 161/35/22 148/36/22 4/61/22
f 47/61/22 34/61/22 147/36/22 162/35/22
f 147/50/5 34/60/5 87/62/5 182/47/5
f 196/53/5 149/37/5 1/61/5 105/27/5
f 1/61/22 149/37/22 152/38/22 7/61/22
f 31/61/22 36/61/22 151/38/22 150/37/22
f 195/52/5 130/33/5 31/61/5 150/37/5
f 7/61/6 152/38/6 156/39/6 17/61/6
f 36/61/6 43/61/6 155/39/6 151/38/6
f 13/61/22 154/44/22 160/45/22 19/61/22
f 40/61/22 45/61/22 159/45/22 153/44/22
f 154/44/5 13/61/5 18/61/5 158/43/5
f 153/44/5 157/42/5 44/61/5 40/61/5
f 17/61/27 156/39/27 158/43/27 18/61/27
f 43/61/28 44/61/28 157/42/28 155/39/28
f 210/61/22 231/46/22 161/35/22 21/61/22
f 216/61/22 47/61/22 162/35/22 230/46/22
f 163/50/5 24/60/5 61/62/5 184/47/5
f 30/61/21 24/61/21 163/36/21 178/35/21
f 56/61/21 177/35/21 164/36/21 50/61/21
f 164/50/5 183/47/5 88/59/5 50/60/5
f 201/52/5 118/33/5 23/61/5 166/37/5
f 23/61/21 25/61/21 167/38/21 166/37/21
f 49/61/21 165/37/21 168/38/21 51/61/21
f 202/53/5 165/37/5 49/61/5 137/27/5
f 25/61/6 27/61/6 171/39/6 167/38/6
f 51/61/6 168/38/6 172/39/6 53/61/6
f 26/61/21 29/61/21 175/45/21 169/44/21
f 169/44/5 173/43/5 28/61/5 26/61/5
f 52/61/21 170/44/21 176/45/21 55/61/21
f 170/44/5 52/61/5 54/61/5 174/43/5
f 27/61/29 28/61/29 173/43/29 171/39/29
f 53/61/30 172/39/30 174/43/30 54/61/30
f 212/61/21 30/61/21 178/35/21 234/46/21
f 220/61/21 235/46/21 177/35/21 56/61/21
f 180/48/5 42/62/5 62/59/5 181/49/5
f 179/48/5 16/62/5 88/59/5 183/47/5
f 182/47/5 87/62/5 16/62/5 179/48/5
f 184/47/5 61/62/5 42/62/5 180/48/5
f 185/40/6 60/58/6 120/34/6 200/54/6
f 186/40/6 199/54/6 139/30/6 85/58/6
f 187/40/6 86/58/6 132/34/6 190/54/6
f 188/40/6 189/54/6 107/30/6 59/58/6
f 107/30/31 189/54/31 192/56/31 108/29/31
f 131/29/32 191/55/32 190/54/32 132/34/32
f 129/26/22 194/51/22 191/55/22 131/29/22
f 106/26/22 108/29/22 192/56/22 193/51/22
f 194/51/33 129/26/33 130/33/33 195/52/33
f 196/53/34 105/27/34 106/26/34 193/51/34
f 117/26/21 204/51/21 197/55/21 119/29/21
f 119/29/35 197/55/35 200/54/35 120/34/35
f 139/30/36 199/54/36 198/56/36 140/29/36
f 138/26/21 140/29/21 198/56/21 203/57/21
f 202/53/37 137/27/37 138/26/37 203/57/37
f 204/51/38 117/26/38 118/33/38 201/52/38
f 238/46/21 206/35/21 205/35/21 239/46/21
f 248/46/1 242/35/1 206/35/1 238/46/1
f 244/45/6 243/45/6 207/45/6 208/45/6
f 246/63/2 244/45/2 208/45/2 240/63/2
f 241/35/2 245/46/2 239/46/2 205/35/2
f 245/46/6 248/46/6 238/46/6 239/46/6
f 243/45/1 247/63/1 237/63/1 207/45/1
f 246/63/5 240/63/5 237/63/5 247/63/5
f 207/45/21 237/63/21 240/63/21 208/45/21
f 246/63/21 247/63/21 248/46/21 245/46/21
f 55/61/21 176/45/21 236/63/21 219/61/21
f 219/61/21 236/63/21 235/46/21 220/61/21
f 29/61/21 211/61/21 233/63/21 175/45/21
f 211/61/21 212/61/21 234/46/21 233/63/21
f 45/61/22 215/61/22 229/63/22 159/45/22
f 215/61/22 216/61/22 230/46/22 229/63/22
f 19/61/22 160/45/22 232/63/22 209/61/22
f 209/61/22 232/63/22 231/46/22 210/61/22
f 159/45/22 229/63/22 232/63/22 160/45/22
f 229/63/22 230/46/22 231/46/22 232/63/22
f 101/5/2 55/17/2 219/17/2 227/8/2
f 227/8/2 219/17/2 220/17/2 228/20/2
f 102/5/2 226/7/2 215/17/2 45/17/2
f 226/7/2 225/19/2 216/17/2 215/17/2
f 79/5/1 19/17/1 209/17/1 223/8/1
f 223/8/1 209/17/1 210/17/1 224/20/1
f 80/5/1 222/7/1 211/17/1 29/17/1
f 222/7/1 221/19/1 212/17/1 211/17/1
f 9/10/2 218/20/2 228/20/2 103/10/2
f 218/20/2 217/8/2 227/8/2 228/20/2
f 32/10/1 214/20/1 224/20/1 81/10/1
f 214/20/1 213/8/1 223/8/1 224/20/1
f 104/10/2 225/19/2 218/20/2 9/10/2
f 225/19/2 226/7/2 217/8/2 218/20/2
f 82/10/1 221/19/1 214/20/1 32/10/1
f 221/19/1 222/7/1 213/8/1 214/20/1
f 233/63/1 234/46/1 248/46/1 247/63/1
f 175/45/1 233/63/1 247/63/1 243/45/1
f 235/46/2 236/63/2 246/63/2 245/46/2
f 177/35/2 235/46/2 245/46/2 241/35/2
f 236/63/2 176/45/2 244/45/2 246/63/2
f 176/45/6 175/45/6 243/45/6 244/45/6
f 234/46/1 178/35/1 242/35/1 248/46/1
f 178/35/5 177/35/5 241/35/5 242/35/5
