# Blender 5.1.1
# www.blender.org
mtllib Player.mtl
o Cube.001
v 0.200000 0.500000 0.350000
v 0.200000 0.800000 0.350000
v 0.200000 0.500000 0.300000
v 0.250000 0.500000 0.350000
v 0.250000 0.800000 0.350000
v 0.250000 0.500000 0.300000
v 0.200000 0.750000 0.300000
v 0.250000 0.750000 0.300000
v 0.200000 0.750000 0.600000
v 0.250000 0.750000 0.600000
v 0.250000 0.800000 0.400000
v 0.250000 0.800000 0.450000
v 0.250000 0.800000 0.500000
v 0.250000 0.800000 0.550000
v 0.250000 0.750000 0.500000
v 0.250000 0.750000 0.450000
v 0.250000 0.750000 0.400000
v 0.200000 0.750000 0.500000
v 0.200000 0.750000 0.450000
v 0.200000 0.750000 0.400000
v 0.200000 0.800000 0.550000
v 0.200000 0.800000 0.500000
v 0.200000 0.800000 0.450000
v 0.200000 0.800000 0.400000
v 0.250000 0.700000 0.600000
v 0.200000 0.700000 0.600000
v 0.250000 0.700000 0.550000
v 0.200000 0.700000 0.550000
v 0.200000 0.765858 0.300000
v 0.200000 0.800000 0.334142
v 0.200000 0.776408 0.301671
v 0.200000 0.785926 0.306521
v 0.200000 0.793480 0.314074
v 0.200000 0.798329 0.323592
v 0.250000 0.800000 0.334142
v 0.250000 0.765858 0.300000
v 0.250000 0.798329 0.323592
v 0.250000 0.793480 0.314074
v 0.250000 0.785926 0.306521
v 0.250000 0.776408 0.301671
v 0.200000 0.750000 0.384142
v 0.200000 0.715858 0.350000
v 0.200000 0.748329 0.373592
v 0.200000 0.743480 0.364074
v 0.200000 0.735926 0.356521
v 0.200000 0.726408 0.351671
v 0.250000 0.715858 0.350000
v 0.250000 0.750000 0.384142
v 0.250000 0.726408 0.351671
v 0.250000 0.735926 0.356521
v 0.250000 0.743480 0.364074
v 0.250000 0.748329 0.373592
v 0.200000 0.800000 0.565858
v 0.200000 0.765858 0.600000
v 0.200000 0.798329 0.576408
v 0.200000 0.793480 0.585926
v 0.200000 0.785926 0.593479
v 0.200000 0.776408 0.598329
v 0.250000 0.765858 0.600000
v 0.250000 0.800000 0.565858
v 0.250000 0.776408 0.598329
v 0.250000 0.785926 0.593479
v 0.250000 0.793480 0.585926
v 0.250000 0.798329 0.576408
v 0.250000 0.750000 0.515858
v 0.250000 0.715858 0.550000
v 0.250000 0.748329 0.526408
v 0.250000 0.743480 0.535926
v 0.250000 0.735926 0.543479
v 0.250000 0.726408 0.548329
v 0.200000 0.715858 0.550000
v 0.200000 0.750000 0.515858
v 0.200000 0.726408 0.548329
v 0.200000 0.735926 0.543479
v 0.200000 0.743480 0.535926
v 0.200000 0.748329 0.526408
v -0.200000 0.500000 0.350000
v -0.200000 0.800000 0.350000
v -0.200000 0.500000 0.300000
v -0.250000 0.500000 0.350000
v -0.250000 0.800000 0.350000
v -0.250000 0.500000 0.300000
v -0.200000 0.750000 0.300000
v -0.250000 0.750000 0.300000
v -0.200000 0.750000 0.600000
v -0.250000 0.750000 0.600000
v -0.250000 0.800000 0.400000
v -0.250000 0.800000 0.450000
v -0.250000 0.800000 0.500000
v -0.250000 0.800000 0.550000
v -0.250000 0.750000 0.500000
v -0.250000 0.750000 0.450000
v -0.250000 0.750000 0.400000
v -0.200000 0.750000 0.500000
v -0.200000 0.750000 0.450000
v -0.200000 0.750000 0.400000
v -0.200000 0.800000 0.550000
v -0.200000 0.800000 0.500000
v -0.200000 0.800000 0.450000
v -0.200000 0.800000 0.400000
v -0.250000 0.700000 0.600000
v -0.200000 0.700000 0.600000
v -0.250000 0.700000 0.550000
v -0.200000 0.700000 0.550000
v -0.200000 0.765858 0.300000
v -0.200000 0.800000 0.334142
v -0.200000 0.776408 0.301671
v -0.200000 0.785926 0.306521
v -0.200000 0.793480 0.314074
v -0.200000 0.798329 0.323592
v -0.250000 0.800000 0.334142
v -0.250000 0.765858 0.300000
v -0.250000 0.798329 0.323592
v -0.250000 0.793480 0.314074
v -0.250000 0.785926 0.306521
v -0.250000 0.776408 0.301671
v -0.200000 0.750000 0.384142
v -0.200000 0.715858 0.350000
v -0.200000 0.748329 0.373592
v -0.200000 0.743480 0.364074
v -0.200000 0.735926 0.356521
v -0.200000 0.726408 0.351671
v -0.250000 0.715858 0.350000
v -0.250000 0.750000 0.384142
v -0.250000 0.726408 0.351671
v -0.250000 0.735926 0.356521
v -0.250000 0.743480 0.364074
v -0.250000 0.748329 0.373592
v -0.200000 0.800000 0.565858
v -0.200000 0.765858 0.600000
v -0.200000 0.798329 0.576408
v -0.200000 0.793480 0.585926
v -0.200000 0.785926 0.593479
v -0.200000 0.776408 0.598329
v -0.250000 0.765858 0.600000
v -0.250000 0.800000 0.565858
v -0.250000 0.776408 0.598329
v -0.250000 0.785926 0.593479
v -0.250000 0.793480 0.585926
v -0.250000 0.798329 0.576408
v -0.250000 0.750000 0.515858
v -0.250000 0.715858 0.550000
v -0.250000 0.748329 0.526408
v -0.250000 0.743480 0.535926
v -0.250000 0.735926 0.543479
v -0.250000 0.726408 0.548329
v -0.200000 0.715858 0.550000
v -0.200000 0.750000 0.515858
v -0.200000 0.726408 0.548329
v -0.200000 0.735926 0.543479
v -0.200000 0.743480 0.535926
v -0.200000 0.748329 0.526408
v -0.350000 -0.288195 0.500000
v -0.500000 -0.300000 0.350000
v -0.396353 -0.291843 0.492658
v -0.438168 -0.295134 0.471353
v -0.471353 -0.297745 0.438168
v -0.492658 -0.299422 0.396353
v -0.288195 -0.350000 0.500000
v -0.300000 -0.500000 0.350000
v -0.291843 -0.396353 0.492658
v -0.295134 -0.438168 0.471353
v -0.297745 -0.471353 0.438168
v -0.299422 -0.492658 0.396353
v -0.345775 -0.314873 0.500000
v -0.490211 -0.361803 0.350000
v -0.390408 -0.329375 0.492658
v -0.430672 -0.342458 0.471353
v -0.462626 -0.352841 0.438168
v -0.483142 -0.359506 0.396353
v -0.338938 -0.328290 0.500000
v -0.461803 -0.417557 0.350000
v -0.376906 -0.355875 0.492658
v -0.411157 -0.380760 0.471353
v -0.438338 -0.400509 0.438168
v -0.455790 -0.413188 0.396353
v -0.328290 -0.338938 0.500000
v -0.417557 -0.461803 0.350000
v -0.355875 -0.376906 0.492658
v -0.380760 -0.411157 0.471353
v -0.400509 -0.438338 0.438168
v -0.413188 -0.455790 0.396353
v -0.314873 -0.345775 0.500000
v -0.361803 -0.490211 0.350000
v -0.329375 -0.390408 0.492658
v -0.342458 -0.430672 0.471353
v -0.352841 -0.462626 0.438168
v -0.359506 -0.483142 0.396353
v -0.288194 0.350000 0.500000
v -0.300000 0.500000 0.350000
v -0.291843 0.396353 0.492658
v -0.295134 0.438168 0.471353
v -0.297745 0.471353 0.438168
v -0.299422 0.492658 0.396353
v -0.350000 0.288195 0.500000
v -0.500000 0.300000 0.350000
v -0.396353 0.291843 0.492658
v -0.438168 0.295134 0.471353
v -0.471353 0.297745 0.438168
v -0.492658 0.299422 0.396353
v -0.314873 0.345775 0.500000
v -0.361803 0.490211 0.350000
v -0.329375 0.390408 0.492658
v -0.342458 0.430672 0.471353
v -0.352840 0.462626 0.438168
v -0.359506 0.483142 0.396353
v -0.328290 0.338938 0.500000
v -0.417557 0.461803 0.350000
v -0.355875 0.376906 0.492658
v -0.380760 0.411156 0.471353
v -0.400509 0.438338 0.438168
v -0.413188 0.455790 0.396353
v -0.338938 0.328290 0.500000
v -0.461803 0.417557 0.350000
v -0.376906 0.355875 0.492658
v -0.411157 0.380760 0.471353
v -0.438338 0.400509 0.438168
v -0.455790 0.413188 0.396353
v -0.345775 0.314873 0.500000
v -0.490211 0.361803 0.350000
v -0.390408 0.329375 0.492658
v -0.430672 0.342458 0.471353
v -0.462626 0.352840 0.438168
v -0.483142 0.359506 0.396353
v -0.288195 -0.350000 -0.500000
v -0.300000 -0.500000 -0.350000
v -0.291843 -0.396353 -0.492658
v -0.295134 -0.438168 -0.471353
v -0.297745 -0.471353 -0.438168
v -0.299422 -0.492658 -0.396353
v -0.350000 -0.288195 -0.500000
v -0.500000 -0.300000 -0.350000
v -0.396353 -0.291843 -0.492658
v -0.438168 -0.295134 -0.471353
v -0.471353 -0.297745 -0.438168
v -0.492658 -0.299422 -0.396353
v -0.314873 -0.345775 -0.500000
v -0.361803 -0.490211 -0.350000
v -0.329375 -0.390408 -0.492658
v -0.342458 -0.430672 -0.471353
v -0.352841 -0.462626 -0.438168
v -0.359506 -0.483142 -0.396353
v -0.328290 -0.338938 -0.500000
v -0.417557 -0.461803 -0.350000
v -0.355875 -0.376906 -0.492658
v -0.380760 -0.411157 -0.471353
v -0.400509 -0.438338 -0.438168
v -0.413188 -0.455790 -0.396353
v -0.338938 -0.328290 -0.500000
v -0.461803 -0.417557 -0.350000
v -0.376906 -0.355875 -0.492658
v -0.411157 -0.380760 -0.471353
v -0.438338 -0.400509 -0.438168
v -0.455790 -0.413188 -0.396353
v -0.345775 -0.314873 -0.500000
v -0.490211 -0.361803 -0.350000
v -0.390408 -0.329375 -0.492658
v -0.430672 -0.342458 -0.471353
v -0.462626 -0.352841 -0.438168
v -0.483142 -0.359506 -0.396353
v -0.350000 0.288195 -0.500000
v -0.500000 0.300000 -0.350000
v -0.396353 0.291843 -0.492658
v -0.438168 0.295134 -0.471353
v -0.471353 0.297745 -0.438168
v -0.492658 0.299422 -0.396353
v -0.288194 0.350000 -0.500000
v -0.300000 0.500000 -0.350000
v -0.291843 0.396353 -0.492658
v -0.295134 0.438168 -0.471353
v -0.297745 0.471353 -0.438168
v -0.299422 0.492658 -0.396353
v -0.345775 0.314873 -0.500000
v -0.490211 0.361803 -0.350000
v -0.390408 0.329375 -0.492658
v -0.430672 0.342458 -0.471353
v -0.462626 0.352840 -0.438168
v -0.483142 0.359506 -0.396353
v -0.338938 0.328290 -0.500000
v -0.461803 0.417557 -0.350000
v -0.376906 0.355875 -0.492658
v -0.411157 0.380760 -0.471353
v -0.438338 0.400509 -0.438168
v -0.455790 0.413188 -0.396353
v -0.328290 0.338938 -0.500000
v -0.417557 0.461803 -0.350000
v -0.355875 0.376906 -0.492658
v -0.380760 0.411156 -0.471353
v -0.400509 0.438338 -0.438168
v -0.413188 0.455790 -0.396353
v -0.314873 0.345775 -0.500000
v -0.361803 0.490211 -0.350000
v -0.329375 0.390408 -0.492658
v -0.342458 0.430672 -0.471353
v -0.352840 0.462626 -0.438168
v -0.359506 0.483142 -0.396353
v 0.288195 -0.350000 0.500000
v 0.300000 -0.500000 0.350000
v 0.291843 -0.396353 0.492658
v 0.295134 -0.438168 0.471353
v 0.297745 -0.471353 0.438168
v 0.299422 -0.492658 0.396353
v 0.350000 -0.288195 0.500000
v 0.500000 -0.300000 0.350000
v 0.396353 -0.291843 0.492658
v 0.438168 -0.295134 0.471353
v 0.471353 -0.297745 0.438168
v 0.492658 -0.299422 0.396353
v 0.314873 -0.345775 0.500000
v 0.361803 -0.490211 0.350000
v 0.329375 -0.390408 0.492658
v 0.342458 -0.430672 0.471353
v 0.352841 -0.462626 0.438168
v 0.359506 -0.483142 0.396353
v 0.328290 -0.338938 0.500000
v 0.417557 -0.461803 0.350000
v 0.355875 -0.376906 0.492658
v 0.380760 -0.411157 0.471353
v 0.400509 -0.438338 0.438168
v 0.413188 -0.455790 0.396353
v 0.338938 -0.328290 0.500000
v 0.461803 -0.417557 0.350000
v 0.376906 -0.355875 0.492658
v 0.411157 -0.380760 0.471353
v 0.438338 -0.400509 0.438168
v 0.455790 -0.413188 0.396353
v 0.345775 -0.314873 0.500000
v 0.490211 -0.361803 0.350000
v 0.390408 -0.329375 0.492658
v 0.430672 -0.342458 0.471353
v 0.462626 -0.352841 0.438168
v 0.483142 -0.359506 0.396353
v 0.350000 0.288195 0.500000
v 0.500000 0.300000 0.350000
v 0.396353 0.291843 0.492658
v 0.438168 0.295134 0.471353
v 0.471353 0.297745 0.438168
v 0.492658 0.299422 0.396353
v 0.288194 0.350000 0.500000
v 0.300000 0.500000 0.350000
v 0.291843 0.396353 0.492658
v 0.295134 0.438168 0.471353
v 0.297745 0.471353 0.438168
v 0.299422 0.492658 0.396353
v 0.345775 0.314873 0.500000
v 0.490211 0.361803 0.350000
v 0.390408 0.329375 0.492658
v 0.430672 0.342458 0.471353
v 0.462626 0.352840 0.438168
v 0.483142 0.359506 0.396353
v 0.338938 0.328290 0.500000
v 0.461803 0.417557 0.350000
v 0.376906 0.355875 0.492658
v 0.411157 0.380760 0.471353
v 0.438338 0.400509 0.438168
v 0.455790 0.413188 0.396353
v 0.328290 0.338938 0.500000
v 0.417557 0.461803 0.350000
v 0.355875 0.376906 0.492658
v 0.380760 0.411156 0.471353
v 0.400509 0.438338 0.438168
v 0.413188 0.455790 0.396353
v 0.314873 0.345775 0.500000
v 0.361803 0.490211 0.350000
v 0.329375 0.390408 0.492658
v 0.342458 0.430672 0.471353
v 0.352840 0.462626 0.438168
v 0.359506 0.483142 0.396353
v 0.350000 -0.288195 -0.500000
v 0.500000 -0.300000 -0.350000
v 0.396353 -0.291843 -0.492658
v 0.438168 -0.295134 -0.471353
v 0.471353 -0.297745 -0.438168
v 0.492658 -0.299422 -0.396353
v 0.288195 -0.350000 -0.500000
v 0.300000 -0.500000 -0.350000
v 0.291843 -0.396353 -0.492658
v 0.295134 -0.438168 -0.471353
v 0.297745 -0.471353 -0.438168
v 0.299422 -0.492658 -0.396353
v 0.345775 -0.314873 -0.500000
v 0.490211 -0.361803 -0.350000
v 0.390408 -0.329375 -0.492658
v 0.430672 -0.342458 -0.471353
v 0.462626 -0.352841 -0.438168
v 0.483142 -0.359506 -0.396353
v 0.338938 -0.328290 -0.500000
v 0.461803 -0.417557 -0.350000
v 0.376906 -0.355875 -0.492658
v 0.411157 -0.380760 -0.471353
v 0.438338 -0.400509 -0.438168
v 0.455790 -0.413188 -0.396353
v 0.328290 -0.338938 -0.500000
v 0.417557 -0.461803 -0.350000
v 0.355875 -0.376906 -0.492658
v 0.380760 -0.411157 -0.471353
v 0.400509 -0.438338 -0.438168
v 0.413188 -0.455790 -0.396353
v 0.314873 -0.345775 -0.500000
v 0.361803 -0.490211 -0.350000
v 0.329375 -0.390408 -0.492658
v 0.342458 -0.430672 -0.471353
v 0.352841 -0.462626 -0.438168
v 0.359506 -0.483142 -0.396353
v 0.288194 0.350000 -0.500000
v 0.300000 0.500000 -0.350000
v 0.291843 0.396353 -0.492658
v 0.295134 0.438168 -0.471353
v 0.297745 0.471353 -0.438168
v 0.299422 0.492658 -0.396353
v 0.350000 0.288195 -0.500000
v 0.500000 0.300000 -0.350000
v 0.396353 0.291843 -0.492658
v 0.438168 0.295134 -0.471353
v 0.471353 0.297745 -0.438168
v 0.492658 0.299422 -0.396353
v 0.314873 0.345775 -0.500000
v 0.361803 0.490211 -0.350000
v 0.329375 0.390408 -0.492658
v 0.342458 0.430672 -0.471353
v 0.352840 0.462626 -0.438168
v 0.359506 0.483142 -0.396353
v 0.328290 0.338938 -0.500000
v 0.417557 0.461803 -0.350000
v 0.355875 0.376906 -0.492658
v 0.380760 0.411156 -0.471353
v 0.400509 0.438338 -0.438168
v 0.413188 0.455790 -0.396353
v 0.338938 0.328290 -0.500000
v 0.461803 0.417557 -0.350000
v 0.376906 0.355875 -0.492658
v 0.411157 0.380760 -0.471353
v 0.438338 0.400509 -0.438168
v 0.455790 0.413188 -0.396353
v 0.345775 0.314873 -0.500000
v 0.490211 0.361803 -0.350000
v 0.390408 0.329375 -0.492658
v 0.430672 0.342458 -0.471353
v 0.462626 0.352840 -0.438168
v 0.483142 0.359506 -0.396353
v 0.200000 0.200000 0.400000
v 0.200000 0.169855 0.600000
v 0.219509 0.198079 0.400000
v 0.213628 0.168513 0.600000
v 0.238268 0.192388 0.400000
v 0.226732 0.164537 0.600000
v 0.255557 0.183147 0.400000
v 0.238809 0.158082 0.600000
v 0.270711 0.170711 0.400000
v 0.249395 0.149395 0.600000
v 0.283147 0.155557 0.400000
v 0.258082 0.138809 0.600000
v 0.292388 0.138268 0.400000
v 0.264537 0.126732 0.600000
v 0.298078 0.119509 0.400000
v 0.268513 0.113628 0.600000
v 0.300000 0.100000 0.400000
v 0.269855 0.100000 0.600000
v 0.298078 0.080491 0.400000
v 0.268513 0.086372 0.600000
v 0.292388 0.061732 0.400000
v 0.264537 0.073268 0.600000
v 0.283147 0.044443 0.400000
v 0.258082 0.061191 0.600000
v 0.270711 0.029289 0.400000
v 0.249395 0.050605 0.600000
v 0.255557 0.016853 0.400000
v 0.238809 0.041918 0.600000
v 0.238268 0.007612 0.400000
v 0.226732 0.035463 0.600000
v 0.219509 0.001922 0.400000
v 0.213628 0.031487 0.600000
v 0.200000 0.000000 0.400000
v 0.200000 0.030145 0.600000
v 0.180491 0.001922 0.400000
v 0.186372 0.031487 0.600000
v 0.161732 0.007612 0.400000
v 0.173268 0.035462 0.600000
v 0.144443 0.016853 0.400000
v 0.161191 0.041918 0.600000
v 0.129289 0.029289 0.400000
v 0.150605 0.050605 0.600000
v 0.116853 0.044443 0.400000
v 0.141918 0.061191 0.600000
v 0.107612 0.061732 0.400000
v 0.135462 0.073268 0.600000
v 0.101921 0.080491 0.400000
v 0.131487 0.086372 0.600000
v 0.100000 0.100000 0.400000
v 0.130145 0.100000 0.600000
v 0.101921 0.119509 0.400000
v 0.131487 0.113628 0.600000
v 0.107612 0.138268 0.400000
v 0.135462 0.126732 0.600000
v 0.116853 0.155557 0.400000
v 0.141918 0.138809 0.600000
v 0.129289 0.170711 0.400000
v 0.150605 0.149395 0.600000
v 0.144443 0.183147 0.400000
v 0.161191 0.158082 0.600000
v 0.161732 0.192388 0.400000
v 0.173268 0.164537 0.600000
v 0.180491 0.198079 0.400000
v 0.186372 0.168513 0.600000
v 0.219509 0.198079 0.600000
v 0.200000 0.200000 0.600000
v 0.238268 0.192388 0.600000
v 0.255557 0.183147 0.600000
v 0.270711 0.170711 0.600000
v 0.283147 0.155557 0.600000
v 0.292388 0.138268 0.600000
v 0.298078 0.119509 0.600000
v 0.300000 0.100000 0.600000
v 0.298078 0.080491 0.600000
v 0.292388 0.061732 0.600000
v 0.283147 0.044443 0.600000
v 0.270711 0.029289 0.600000
v 0.255557 0.016853 0.600000
v 0.238268 0.007612 0.600000
v 0.219509 0.001921 0.600000
v 0.200000 0.000000 0.600000
v 0.180491 0.001921 0.600000
v 0.161732 0.007612 0.600000
v 0.144443 0.016853 0.600000
v 0.129289 0.029289 0.600000
v 0.116853 0.044443 0.600000
v 0.107612 0.061732 0.600000
v 0.101921 0.080491 0.600000
v 0.100000 0.100000 0.600000
v 0.101921 0.119509 0.600000
v 0.107612 0.138268 0.600000
v 0.116853 0.155557 0.600000
v 0.129289 0.170711 0.600000
v 0.144443 0.183147 0.600000
v 0.161732 0.192388 0.600000
v 0.180491 0.198079 0.600000
v 0.213628 0.168513 0.630000
v 0.200000 0.169855 0.630000
v 0.226732 0.164537 0.630000
v 0.238809 0.158082 0.630000
v 0.249395 0.149395 0.630000
v 0.258082 0.138809 0.630000
v 0.264537 0.126732 0.630000
v 0.268513 0.113628 0.630000
v 0.269855 0.100000 0.630000
v 0.268513 0.086372 0.630000
v 0.264537 0.073268 0.630000
v 0.258082 0.061191 0.630000
v 0.249395 0.050605 0.630000
v 0.238809 0.041918 0.630000
v 0.226732 0.035463 0.630000
v 0.213628 0.031487 0.630000
v 0.200000 0.030145 0.630000
v 0.186372 0.031487 0.630000
v 0.173268 0.035462 0.630000
v 0.161191 0.041918 0.630000
v 0.150605 0.050605 0.630000
v 0.141918 0.061191 0.630000
v 0.135462 0.073268 0.630000
v 0.131487 0.086372 0.630000
v 0.130145 0.100000 0.630000
v 0.131487 0.113628 0.630000
v 0.135462 0.126732 0.630000
v 0.141918 0.138809 0.630000
v 0.150605 0.149395 0.630000
v 0.161191 0.158082 0.630000
v 0.173268 0.164537 0.630000
v 0.186372 0.168513 0.630000
v -0.200000 0.200000 0.400000
v -0.200000 0.169855 0.600000
v -0.219509 0.198079 0.400000
v -0.213628 0.168513 0.600000
v -0.238268 0.192388 0.400000
v -0.226732 0.164537 0.600000
v -0.255557 0.183147 0.400000
v -0.238809 0.158082 0.600000
v -0.270711 0.170711 0.400000
v -0.249395 0.149395 0.600000
v -0.283147 0.155557 0.400000
v -0.258082 0.138809 0.600000
v -0.292388 0.138268 0.400000
v -0.264537 0.126732 0.600000
v -0.298078 0.119509 0.400000
v -0.268513 0.113628 0.600000
v -0.300000 0.100000 0.400000
v -0.269855 0.100000 0.600000
v -0.298078 0.080491 0.400000
v -0.268513 0.086372 0.600000
v -0.292388 0.061732 0.400000
v -0.264537 0.073268 0.600000
v -0.283147 0.044443 0.400000
v -0.258082 0.061191 0.600000
v -0.270711 0.029289 0.400000
v -0.249395 0.050605 0.600000
v -0.255557 0.016853 0.400000
v -0.238809 0.041918 0.600000
v -0.238268 0.007612 0.400000
v -0.226732 0.035463 0.600000
v -0.219509 0.001922 0.400000
v -0.213628 0.031487 0.600000
v -0.200000 0.000000 0.400000
v -0.200000 0.030145 0.600000
v -0.180491 0.001922 0.400000
v -0.186372 0.031487 0.600000
v -0.161732 0.007612 0.400000
v -0.173268 0.035462 0.600000
v -0.144443 0.016853 0.400000
v -0.161191 0.041918 0.600000
v -0.129289 0.029289 0.400000
v -0.150605 0.050605 0.600000
v -0.116853 0.044443 0.400000
v -0.141918 0.061191 0.600000
v -0.107612 0.061732 0.400000
v -0.135462 0.073268 0.600000
v -0.101921 0.080491 0.400000
v -0.131487 0.086372 0.600000
v -0.100000 0.100000 0.400000
v -0.130145 0.100000 0.600000
v -0.101921 0.119509 0.400000
v -0.131487 0.113628 0.600000
v -0.107612 0.138268 0.400000
v -0.135462 0.126732 0.600000
v -0.116853 0.155557 0.400000
v -0.141918 0.138809 0.600000
v -0.129289 0.170711 0.400000
v -0.150605 0.149395 0.600000
v -0.144443 0.183147 0.400000
v -0.161191 0.158082 0.600000
v -0.161732 0.192388 0.400000
v -0.173268 0.164537 0.600000
v -0.180491 0.198079 0.400000
v -0.186372 0.168513 0.600000
v -0.219509 0.198079 0.600000
v -0.200000 0.200000 0.600000
v -0.238268 0.192388 0.600000
v -0.255557 0.183147 0.600000
v -0.270711 0.170711 0.600000
v -0.283147 0.155557 0.600000
v -0.292388 0.138268 0.600000
v -0.298078 0.119509 0.600000
v -0.300000 0.100000 0.600000
v -0.298078 0.080491 0.600000
v -0.292388 0.061732 0.600000
v -0.283147 0.044443 0.600000
v -0.270711 0.029289 0.600000
v -0.255557 0.016853 0.600000
v -0.238268 0.007612 0.600000
v -0.219509 0.001921 0.600000
v -0.200000 0.000000 0.600000
v -0.180491 0.001921 0.600000
v -0.161732 0.007612 0.600000
v -0.144443 0.016853 0.600000
v -0.129289 0.029289 0.600000
v -0.116853 0.044443 0.600000
v -0.107612 0.061732 0.600000
v -0.101921 0.080491 0.600000
v -0.100000 0.100000 0.600000
v -0.101921 0.119509 0.600000
v -0.107612 0.138268 0.600000
v -0.116853 0.155557 0.600000
v -0.129289 0.170711 0.600000
v -0.144443 0.183147 0.600000
v -0.161732 0.192388 0.600000
v -0.180491 0.198079 0.600000
v -0.213628 0.168513 0.630000
v -0.200000 0.169855 0.630000
v -0.226732 0.164537 0.630000
v -0.238809 0.158082 0.630000
v -0.249395 0.149395 0.630000
v -0.258082 0.138809 0.630000
v -0.264537 0.126732 0.630000
v -0.268513 0.113628 0.630000
v -0.269855 0.100000 0.630000
v -0.268513 0.086372 0.630000
v -0.264537 0.073268 0.630000
v -0.258082 0.061191 0.630000
v -0.249395 0.050605 0.630000
v -0.238809 0.041918 0.630000
v -0.226732 0.035463 0.630000
v -0.213628 0.031487 0.630000
v -0.200000 0.030145 0.630000
v -0.186372 0.031487 0.630000
v -0.173268 0.035462 0.630000
v -0.161191 0.041918 0.630000
v -0.150605 0.050605 0.630000
v -0.141918 0.061191 0.630000
v -0.135462 0.073268 0.630000
v -0.131487 0.086372 0.630000
v -0.130145 0.100000 0.630000
v -0.131487 0.113628 0.630000
v -0.135462 0.126732 0.630000
v -0.141918 0.138809 0.630000
v -0.150605 0.149395 0.630000
v -0.161191 0.158082 0.630000
v -0.173268 0.164537 0.630000
v -0.186372 0.168513 0.630000
v -0.200000 -0.200000 0.550000
v -0.200000 -0.150000 0.550000
v -0.200000 -0.200000 0.400000
v -0.200000 -0.150000 0.400000
v 0.200000 -0.200000 0.550000
v 0.200000 -0.150000 0.550000
v 0.200000 -0.200000 0.400000
v 0.200000 -0.150000 0.400000
vn -0.0000 -1.0000 -0.0000
vn -0.0000 -0.0000 -1.0000
vn -0.0000 1.0000 -0.0000
vn -1.0000 -0.0000 -0.0000
vn 1.0000 -0.0000 -0.0000
vn -0.0000 -0.0000 1.0000
vn -0.0000 0.9877 -0.1564
vn -0.0000 0.8910 -0.4540
vn -0.0000 0.7071 -0.7071
vn -0.0000 0.4540 -0.8910
vn -0.0000 0.1564 -0.9877
vn -0.0000 -0.9877 0.1564
vn -0.0000 -0.8910 0.4540
vn -0.0000 -0.7071 0.7071
vn -0.0000 -0.4540 0.8910
vn -0.0000 -0.1564 0.9877
vn -0.0000 0.9877 0.1564
vn -0.0000 0.8910 0.4540
vn -0.0000 0.7071 0.7071
vn -0.0000 0.4540 0.8910
vn -0.0000 0.1564 0.9877
vn -0.0000 -0.1564 -0.9877
vn -0.0000 -0.4540 -0.8910
vn -0.0000 -0.7071 -0.7071
vn -0.0000 -0.8910 -0.4540
vn -0.0000 -0.9877 -0.1564
vn -0.0263 -0.0810 -0.9964
vn -0.0064 -0.0819 -0.9966
vn -0.0247 -0.3142 -0.9490
vn -0.0988 -0.3040 -0.9475
vn -0.0464 -0.5899 -0.8061
vn -0.1834 -0.5643 -0.8050
vn -0.0636 -0.8084 -0.5852
vn -0.2506 -0.7714 -0.5850
vn -0.0747 -0.9486 -0.3076
vn -0.2940 -0.9049 -0.3078
vn -0.0782 -0.9938 -0.0784
vn -0.3081 -0.9481 -0.0788
vn -0.0064 -0.0819 0.9966
vn -0.0263 -0.0810 0.9964
vn -0.0988 -0.3040 0.9475
vn -0.0247 -0.3142 0.9490
vn -0.1834 -0.5643 0.8050
vn -0.0464 -0.5899 0.8061
vn -0.2506 -0.7714 0.5850
vn -0.0636 -0.8084 0.5852
vn -0.2940 -0.9049 0.3078
vn -0.0747 -0.9486 0.3076
vn -0.3081 -0.9481 0.0788
vn -0.0782 -0.9938 0.0784
vn -0.0501 -0.0689 -0.9964
vn -0.1879 -0.2586 -0.9475
vn -0.3488 -0.4800 -0.8050
vn -0.4767 -0.6562 -0.5850
vn -0.5593 -0.7698 -0.3078
vn -0.5860 -0.8065 -0.0788
vn -0.0501 -0.0689 0.9964
vn -0.1879 -0.2586 0.9475
vn -0.3488 -0.4800 0.8050
vn -0.4767 -0.6562 0.5850
vn -0.5593 -0.7698 0.3078
vn -0.5860 -0.8065 0.0788
vn -0.0689 -0.0501 -0.9964
vn -0.2586 -0.1879 -0.9475
vn -0.4800 -0.3488 -0.8050
vn -0.6562 -0.4767 -0.5850
vn -0.7698 -0.5593 -0.3078
vn -0.8065 -0.5860 -0.0788
vn -0.0689 -0.0501 0.9964
vn -0.2586 -0.1879 0.9475
vn -0.4800 -0.3488 0.8050
vn -0.6562 -0.4767 0.5850
vn -0.7698 -0.5593 0.3078
vn -0.8065 -0.5860 0.0788
vn -0.0810 -0.0263 -0.9964
vn -0.3040 -0.0988 -0.9475
vn -0.5643 -0.1834 -0.8050
vn -0.7714 -0.2506 -0.5850
vn -0.9049 -0.2940 -0.3078
vn -0.9481 -0.3081 -0.0788
vn -0.0810 -0.0263 0.9964
vn -0.3040 -0.0988 0.9475
vn -0.5643 -0.1834 0.8050
vn -0.7714 -0.2506 0.5850
vn -0.9049 -0.2940 0.3078
vn -0.9481 -0.3081 0.0788
vn -0.0819 -0.0064 -0.9966
vn -0.3142 -0.0247 -0.9490
vn -0.5899 -0.0464 -0.8061
vn -0.8084 -0.0636 -0.5852
vn -0.9486 -0.0747 -0.3076
vn -0.9938 -0.0782 -0.0784
vn -0.0819 -0.0064 0.9966
vn -0.3142 -0.0247 0.9490
vn -0.5899 -0.0464 0.8061
vn -0.8084 -0.0636 0.5852
vn -0.9486 -0.0747 0.3076
vn -0.9938 -0.0782 0.0784
vn -0.0263 0.0810 0.9964
vn -0.0064 0.0819 0.9966
vn -0.0247 0.3142 0.9490
vn -0.0988 0.3040 0.9475
vn -0.0464 0.5899 0.8061
vn -0.1834 0.5643 0.8050
vn -0.0636 0.8084 0.5852
vn -0.2506 0.7714 0.5850
vn -0.0747 0.9486 0.3076
vn -0.2940 0.9049 0.3078
vn -0.0782 0.9938 0.0784
vn -0.3081 0.9481 0.0788
vn -0.0064 0.0819 -0.9966
vn -0.0263 0.0810 -0.9964
vn -0.0988 0.3040 -0.9475
vn -0.0247 0.3142 -0.9490
vn -0.1834 0.5643 -0.8050
vn -0.0464 0.5899 -0.8061
vn -0.2506 0.7714 -0.5850
vn -0.0636 0.8084 -0.5852
vn -0.2940 0.9049 -0.3078
vn -0.0747 0.9486 -0.3076
vn -0.3081 0.9481 -0.0788
vn -0.0782 0.9938 -0.0784
vn -0.0501 0.0689 0.9964
vn -0.1879 0.2586 0.9475
vn -0.3488 0.4800 0.8050
vn -0.4767 0.6562 0.5850
vn -0.5593 0.7698 0.3078
vn -0.5860 0.8065 0.0788
vn -0.0501 0.0689 -0.9964
vn -0.1879 0.2586 -0.9475
vn -0.3488 0.4800 -0.8050
vn -0.4767 0.6562 -0.5850
vn -0.5593 0.7698 -0.3078
vn -0.5860 0.8065 -0.0788
vn -0.0689 0.0501 0.9964
vn -0.2586 0.1879 0.9475
vn -0.4800 0.3488 0.8050
vn -0.6562 0.4767 0.5850
vn -0.7698 0.5593 0.3078
vn -0.8065 0.5860 0.0788
vn -0.0689 0.0501 -0.9964
vn -0.2586 0.1879 -0.9475
vn -0.4800 0.3488 -0.8050
vn -0.6562 0.4767 -0.5850
vn -0.7698 0.5593 -0.3078
vn -0.8065 0.5860 -0.0788
vn -0.0810 0.0263 0.9964
vn -0.3040 0.0988 0.9475
vn -0.5643 0.1834 0.8050
vn -0.7714 0.2506 0.5850
vn -0.9049 0.2940 0.3078
vn -0.9481 0.3081 0.0788
vn -0.0810 0.0263 -0.9964
vn -0.3040 0.0988 -0.9475
vn -0.5643 0.1834 -0.8050
vn -0.7714 0.2506 -0.5850
vn -0.9049 0.2940 -0.3078
vn -0.9481 0.3081 -0.0788
vn -0.0819 0.0064 0.9966
vn -0.3142 0.0247 0.9490
vn -0.5899 0.0464 0.8061
vn -0.8084 0.0636 0.5852
vn -0.9486 0.0747 0.3076
vn -0.9938 0.0782 0.0784
vn -0.0819 0.0064 -0.9966
vn -0.3142 0.0247 -0.9490
vn -0.5899 0.0464 -0.8061
vn -0.8084 0.0636 -0.5852
vn -0.9486 0.0747 -0.3076
vn -0.9938 0.0782 -0.0784
vn 0.0263 -0.0810 0.9964
vn 0.0064 -0.0819 0.9966
vn 0.0247 -0.3142 0.9490
vn 0.0988 -0.3040 0.9475
vn 0.0464 -0.5899 0.8061
vn 0.1834 -0.5643 0.8050
vn 0.0636 -0.8084 0.5852
vn 0.2506 -0.7714 0.5850
vn 0.0747 -0.9486 0.3076
vn 0.2940 -0.9049 0.3078
vn 0.0782 -0.9938 0.0784
vn 0.3081 -0.9481 0.0788
vn 0.0064 -0.0819 -0.9966
vn 0.0263 -0.0810 -0.9964
vn 0.0988 -0.3040 -0.9475
vn 0.0247 -0.3142 -0.9490
vn 0.1834 -0.5643 -0.8050
vn 0.0464 -0.5899 -0.8061
vn 0.2506 -0.7714 -0.5850
vn 0.0636 -0.8084 -0.5852
vn 0.2940 -0.9049 -0.3078
vn 0.0747 -0.9486 -0.3076
vn 0.3081 -0.9481 -0.0788
vn 0.0782 -0.9938 -0.0784
vn 0.0501 -0.0689 0.9964
vn 0.1879 -0.2586 0.9475
vn 0.3488 -0.4800 0.8050
vn 0.4767 -0.6562 0.5850
vn 0.5593 -0.7698 0.3078
vn 0.5860 -0.8065 0.0788
vn 0.0501 -0.0689 -0.9964
vn 0.1879 -0.2586 -0.9475
vn 0.3488 -0.4800 -0.8050
vn 0.4767 -0.6562 -0.5850
vn 0.5593 -0.7698 -0.3078
vn 0.5860 -0.8065 -0.0788
vn 0.0689 -0.0501 0.9964
vn 0.2586 -0.1879 0.9475
vn 0.4800 -0.3488 0.8050
vn 0.6562 -0.4767 0.5850
vn 0.7698 -0.5593 0.3078
vn 0.8065 -0.5860 0.0788
vn 0.0689 -0.0501 -0.9964
vn 0.2586 -0.1879 -0.9475
vn 0.4800 -0.3488 -0.8050
vn 0.6562 -0.4767 -0.5850
vn 0.7698 -0.5593 -0.3078
vn 0.8065 -0.5860 -0.0788
vn 0.0810 -0.0263 0.9964
vn 0.3040 -0.0988 0.9475
vn 0.5643 -0.1834 0.8050
vn 0.7714 -0.2506 0.5850
vn 0.9049 -0.2940 0.3078
vn 0.9481 -0.3081 0.0788
vn 0.0810 -0.0263 -0.9964
vn 0.3040 -0.0988 -0.9475
vn 0.5643 -0.1834 -0.8050
vn 0.7714 -0.2506 -0.5850
vn 0.9049 -0.2940 -0.3078
vn 0.9481 -0.3081 -0.0788
vn 0.0819 -0.0064 0.9966
vn 0.3142 -0.0247 0.9490
vn 0.5899 -0.0464 0.8061
vn 0.8084 -0.0636 0.5852
vn 0.9486 -0.0747 0.3076
vn 0.9938 -0.0782 0.0784
vn 0.0819 -0.0064 -0.9966
vn 0.3142 -0.0247 -0.9490
vn 0.5899 -0.0464 -0.8061
vn 0.8084 -0.0636 -0.5852
vn 0.9486 -0.0747 -0.3076
vn 0.9938 -0.0782 -0.0784
vn 0.0263 0.0810 -0.9964
vn 0.0064 0.0819 -0.9966
vn 0.0247 0.3142 -0.9490
vn 0.0988 0.3040 -0.9475
vn 0.0464 0.5899 -0.8061
vn 0.1834 0.5643 -0.8050
vn 0.0636 0.8084 -0.5852
vn 0.2506 0.7714 -0.5850
vn 0.0747 0.9486 -0.3076
vn 0.2940 0.9049 -0.3078
vn 0.0782 0.9938 -0.0784
vn 0.3081 0.9481 -0.0788
vn 0.0064 0.0819 0.9966
vn 0.0263 0.0810 0.9964
vn 0.0988 0.3040 0.9475
vn 0.0247 0.3142 0.9490
vn 0.1834 0.5643 0.8050
vn 0.0464 0.5899 0.8061
vn 0.2506 0.7714 0.5850
vn 0.0636 0.8084 0.5852
vn 0.2940 0.9049 0.3078
vn 0.0747 0.9486 0.3076
vn 0.3081 0.9481 0.0788
vn 0.0782 0.9938 0.0784
vn 0.0501 0.0689 -0.9964
vn 0.1879 0.2586 -0.9475
vn 0.3488 0.4800 -0.8050
vn 0.4767 0.6562 -0.5850
vn 0.5593 0.7698 -0.3078
vn 0.5860 0.8065 -0.0788
vn 0.0501 0.0689 0.9964
vn 0.1879 0.2586 0.9475
vn 0.3488 0.4800 0.8050
vn 0.4767 0.6562 0.5850
vn 0.5593 0.7698 0.3078
vn 0.5860 0.8065 0.0788
vn 0.0689 0.0501 -0.9964
vn 0.2586 0.1879 -0.9475
vn 0.4800 0.3488 -0.8050
vn 0.6562 0.4767 -0.5850
vn 0.7698 0.5593 -0.3078
vn 0.8065 0.5860 -0.0788
vn 0.0689 0.0501 0.9964
vn 0.2586 0.1879 0.9475
vn 0.4800 0.3488 0.8050
vn 0.6562 0.4767 0.5850
vn 0.7698 0.5593 0.3078
vn 0.8065 0.5860 0.0788
vn 0.0810 0.0263 -0.9964
vn 0.3040 0.0988 -0.9475
vn 0.5643 0.1834 -0.8050
vn 0.7714 0.2506 -0.5850
vn 0.9049 0.2940 -0.3078
vn 0.9481 0.3081 -0.0788
vn 0.0810 0.0263 0.9964
vn 0.3040 0.0988 0.9475
vn 0.5643 0.1834 0.8050
vn 0.7714 0.2506 0.5850
vn 0.9049 0.2940 0.3078
vn 0.9481 0.3081 0.0788
vn 0.0819 0.0064 -0.9966
vn 0.3142 0.0247 -0.9490
vn 0.5899 0.0464 -0.8061
vn 0.8084 0.0636 -0.5852
vn 0.9486 0.0747 -0.3076
vn 0.9938 0.0782 -0.0784
vn 0.0819 0.0064 0.9966
vn 0.3142 0.0247 0.9490
vn 0.5899 0.0464 0.8061
vn 0.8084 0.0636 0.5852
vn 0.9486 0.0747 0.3076
vn 0.9938 0.0782 0.0784
vn -0.0000 0.7279 -0.6857
vn -0.0000 0.7279 0.6857
vn 0.1420 0.7139 0.6857
vn 0.1420 0.7139 -0.6857
vn 0.2785 0.6725 0.6857
vn 0.2785 0.6725 -0.6857
vn 0.4044 0.6052 0.6857
vn 0.4044 0.6052 -0.6857
vn 0.5147 0.5147 0.6857
vn 0.5147 0.5147 -0.6857
vn 0.6052 0.4044 0.6857
vn 0.6052 0.4044 -0.6857
vn 0.6725 0.2785 0.6857
vn 0.6725 0.2785 -0.6857
vn 0.7139 0.1420 0.6857
vn 0.7139 0.1420 -0.6857
vn 0.7279 -0.0000 0.6857
vn 0.7279 -0.0000 -0.6857
vn 0.7139 -0.1420 0.6857
vn 0.7139 -0.1420 -0.6857
vn 0.6725 -0.2785 0.6857
vn 0.6725 -0.2785 -0.6857
vn 0.6052 -0.4044 0.6857
vn 0.6052 -0.4044 -0.6857
vn 0.5147 -0.5147 0.6857
vn 0.5147 -0.5147 -0.6857
vn 0.4044 -0.6052 0.6857
vn 0.4044 -0.6052 -0.6857
vn 0.2785 -0.6725 0.6857
vn 0.2785 -0.6725 -0.6857
vn 0.1420 -0.7139 0.6857
vn 0.1420 -0.7139 -0.6857
vn -0.0000 -0.7279 0.6857
vn -0.0000 -0.7279 -0.6857
vn -0.1420 -0.7139 0.6857
vn -0.1420 -0.7139 -0.6857
vn -0.2785 -0.6725 0.6857
vn -0.2785 -0.6725 -0.6857
vn -0.4044 -0.6052 0.6857
vn -0.4044 -0.6052 -0.6857
vn -0.5147 -0.5147 0.6857
vn -0.5147 -0.5147 -0.6857
vn -0.6052 -0.4044 0.6857
vn -0.6052 -0.4044 -0.6857
vn -0.6725 -0.2785 0.6857
vn -0.6725 -0.2785 -0.6857
vn -0.7139 -0.1420 0.6857
vn -0.7139 -0.1420 -0.6857
vn -0.7279 -0.0000 0.6857
vn -0.7279 -0.0000 -0.6857
vn -0.7139 0.1420 0.6857
vn -0.7139 0.1420 -0.6857
vn -0.6725 0.2785 0.6857
vn -0.6725 0.2785 -0.6857
vn -0.6052 0.4044 0.6857
vn -0.6052 0.4044 -0.6857
vn -0.5147 0.5147 0.6857
vn -0.5147 0.5147 -0.6857
vn -0.4044 0.6052 0.6857
vn -0.4044 0.6052 -0.6857
vn -0.2785 0.6725 0.6857
vn -0.2785 0.6725 -0.6857
vn -0.2616 -0.6316 0.7298
vn -0.1334 -0.6705 0.7298
vn -0.1420 0.7139 0.6857
vn -0.1420 0.7139 -0.6857
vn -0.0000 0.6836 0.7298
vn 0.1334 0.6705 0.7298
vn 0.2616 0.6316 0.7298
vn 0.3798 0.5684 0.7298
vn 0.4834 0.4834 0.7298
vn 0.5684 0.3798 0.7298
vn 0.6316 0.2616 0.7298
vn 0.6705 0.1334 0.7298
vn 0.6836 -0.0000 0.7298
vn 0.6705 -0.1334 0.7298
vn 0.6316 -0.2616 0.7298
vn 0.5684 -0.3798 0.7298
vn 0.4834 -0.4834 0.7298
vn 0.3798 -0.5684 0.7298
vn 0.2616 -0.6316 0.7298
vn 0.1334 -0.6705 0.7298
vn -0.0000 -0.6836 0.7298
vn -0.3798 -0.5684 0.7298
vn -0.4834 -0.4834 0.7298
vn -0.5684 -0.3798 0.7298
vn -0.6316 -0.2616 0.7298
vn -0.6705 -0.1334 0.7298
vn -0.6836 -0.0000 0.7298
vn -0.6705 0.1334 0.7298
vn -0.6316 0.2616 0.7298
vn -0.5684 0.3798 0.7298
vn -0.4834 0.4834 0.7298
vn -0.3798 0.5684 0.7298
vn -0.2616 0.6316 0.7298
vn -0.1334 0.6705 0.7298
vn -0.6725 -0.2786 0.6857
vn 0.6725 -0.2786 0.6857
vt 0.125000 0.500000
vt 0.375000 0.500000
vt 0.375000 0.750000
vt 0.125000 0.750000
vt 0.375000 0.250000
vt 0.583333 0.250000
vt 0.583333 0.500000
vt 0.625000 0.750000
vt 0.875000 0.750000
vt 0.625000 0.000000
vt 0.583333 0.000000
vt 0.583333 1.000000
vt 0.583333 0.750000
vt 0.875000 0.670711
vt 0.625000 0.670711
vt 0.624304 0.617958
vt 0.875000 0.617958
vt 0.622283 0.535185
vt 0.875000 0.500000
vt 0.621378 0.203087
vt 0.613272 0.516301
vt 0.613272 0.233699
vt 0.605340 0.504178
vt 0.605340 0.245822
vt 0.596548 0.500000
vt 0.596548 0.250000
vt 0.583333 0.818284
vt 0.582637 0.808979
vt 0.580616 0.785185
vt 0.571605 1.000000
vt 0.571605 0.766301
vt 0.563674 1.000000
vt 0.563674 0.754178
vt 0.554882 1.000000
vt 0.554882 0.750000
vt 0.624304 0.750000
vt 0.622283 0.750000
vt 0.625000 1.000000
vt 0.613272 1.000000
vt 0.613272 0.750000
vt 0.605340 1.000000
vt 0.605340 0.750000
vt 0.596548 1.000000
vt 0.596548 0.750000
vt 0.571953 0.750000
vt 0.573503 0.750000
vt 0.577469 0.750000
vt 0.580616 0.750000
vt 0.583333 1.000000
vt 0.582637 0.750000
vt 0.583333 -0.113807
vt 0.625000 0.079289
vt 0.623608 0.132042
vt 0.581941 -0.117958
vt 0.577900 -0.070370
vt 0.571605 -0.032603
vt 0.563674 -0.008355
vt 0.554882 0.000000
vt 0.564365 0.000000
vt 0.596548 0.000000
vt 0.605340 0.000000
vt 0.563674 0.000000
vt 0.613272 0.000000
vt 0.571605 0.000000
vt 0.619566 0.000000
vt 0.577900 0.000000
vt 0.623608 0.000000
vt 0.581941 0.000000
vt 0.583333 0.000000
vt 0.375000 1.000000
vt 0.375000 0.000000
vt 0.411390 0.297899
vt 0.410084 0.305233
vt 0.398802 0.303906
vt 0.400533 0.293592
vt 0.388988 0.302576
vt 0.391180 0.289795
vt 0.374981 0.300066
vt 0.377616 0.284604
vt 0.159604 0.500000
vt 0.175035 0.499969
vt 0.175009 0.525908
vt 0.159563 0.525912
vt 0.175000 0.537500
vt 0.159549 0.537500
vt 0.410869 0.944225
vt 0.412382 0.951437
vt 0.401595 0.955758
vt 0.399470 0.945657
vt 0.391957 0.959753
vt 0.389385 0.947167
vt 0.377616 0.965396
vt 0.374981 0.949934
vt 0.175035 0.750031
vt 0.159604 0.750000
vt 0.159563 0.724088
vt 0.175009 0.724092
vt 0.159549 0.712500
vt 0.175000 0.712500
vt 0.413173 0.294270
vt 0.403682 0.286414
vt 0.395080 0.279444
vt 0.384319 0.270542
vt 0.145369 0.500000
vt 0.145549 0.525912
vt 0.145611 0.537500
vt 0.414272 0.954996
vt 0.405221 0.962662
vt 0.397003 0.969515
vt 0.384693 0.979285
vt 0.145369 0.750000
vt 0.145549 0.724088
vt 0.145611 0.712500
vt 0.415904 0.291448
vt 0.408768 0.280827
vt 0.401437 0.271017
vt 0.386070 0.244477
vt 0.126495 0.500000
vt 0.125383 0.525912
vt 0.125000 0.537500
vt 0.417053 0.957774
vt 0.410595 0.968034
vt 0.404649 0.977160
vt 0.395715 0.990307
vt 0.126495 0.750000
vt 0.125383 0.724088
vt 0.125000 0.712500
vt 0.419356 0.289706
vt 0.415690 0.277502
vt 0.412268 0.266513
vt 0.409204 0.235413
vt 0.384709 0.228302
vt 0.409457 0.224845
vt 0.383760 0.216558
vt 0.409549 0.213193
vt 0.420470 0.959519
vt 0.417263 0.971420
vt 0.414232 0.982025
vt 0.409604 0.997384
vt 0.377505 0.000000
vt 0.408857 0.000000
vt 0.409382 0.026000
vt 0.376689 0.026399
vt 0.409549 0.037622
vt 0.376546 0.038216
vt 0.426238 0.288790
vt 0.425640 0.276407
vt 0.425292 0.265486
vt 0.425004 0.234556
vt 0.425001 0.224091
vt 0.425000 0.212500
vt 0.427176 0.960516
vt 0.426647 0.972819
vt 0.426048 0.983821
vt 0.425003 0.999956
vt 0.425003 0.000000
vt 0.425001 0.025912
vt 0.425000 0.037500
vt 0.587618 0.951437
vt 0.589131 0.944225
vt 0.600530 0.945657
vt 0.598405 0.955758
vt 0.610615 0.947167
vt 0.608043 0.959753
vt 0.625018 0.949934
vt 0.622384 0.965396
vt 0.841143 0.750000
vt 0.824965 0.750031
vt 0.824991 0.724092
vt 0.840628 0.724088
vt 0.825000 0.712500
vt 0.840451 0.712500
vt 0.589541 0.304194
vt 0.588110 0.296652
vt 0.599118 0.291868
vt 0.600980 0.302809
vt 0.608944 0.287719
vt 0.610955 0.301767
vt 0.622557 0.284230
vt 0.625019 0.300066
vt 0.824965 0.499969
vt 0.841143 0.500000
vt 0.840628 0.525912
vt 0.824991 0.525908
vt 0.840451 0.537500
vt 0.825000 0.537500
vt 0.585728 0.954996
vt 0.594779 0.962662
vt 0.602996 0.969515
vt 0.615307 0.979285
vt 0.872495 0.750000
vt 0.874358 0.724088
vt 0.875000 0.712500
vt 0.586236 0.292973
vt 0.595609 0.284364
vt 0.604475 0.275944
vt 0.619696 0.249842
vt 0.872495 0.500000
vt 0.874358 0.525912
vt 0.875000 0.537500
vt 0.582947 0.957774
vt 0.589405 0.968034
vt 0.595351 0.977160
vt 0.604285 0.990307
vt 0.604631 0.000000
vt 0.623506 0.000000
vt 0.624132 0.026965
vt 0.604446 0.026247
vt 0.624284 0.039046
vt 0.604389 0.037977
vt 0.583432 0.290194
vt 0.590101 0.279022
vt 0.596231 0.268608
vt 0.604470 0.237688
vt 0.604412 0.226981
vt 0.620416 0.233208
vt 0.604389 0.215206
vt 0.620942 0.221260
vt 0.579529 0.959519
vt 0.582737 0.971420
vt 0.585768 0.982025
vt 0.590396 0.997384
vt 0.590396 0.000000
vt 0.590437 0.025998
vt 0.590451 0.037622
vt 0.579962 0.288566
vt 0.583210 0.276216
vt 0.586117 0.265444
vt 0.590396 0.235359
vt 0.590437 0.224832
vt 0.590451 0.213193
vt 0.572824 0.960516
vt 0.573353 0.972819
vt 0.573952 0.983821
vt 0.574996 0.999956
vt 0.574996 0.000000
vt 0.574999 0.025912
vt 0.575000 0.037500
vt 0.573157 0.287889
vt 0.573640 0.275604
vt 0.574122 0.264986
vt 0.574996 0.234556
vt 0.574999 0.224091
vt 0.575000 0.212500
vt 0.401027 0.782405
vt 0.398530 0.787594
vt 0.382522 0.782932
vt 0.386438 0.776174
vt 0.367025 0.777590
vt 0.372459 0.770075
vt 0.341742 0.757984
vt 0.352803 0.744650
vt 0.341638 0.737278
vt 0.352788 0.733221
vt 0.341667 0.724167
vt 0.352783 0.720561
vt 0.398498 0.462336
vt 0.401000 0.467532
vt 0.386419 0.473780
vt 0.382498 0.467017
vt 0.372446 0.479896
vt 0.367010 0.472377
vt 0.352803 0.505350
vt 0.341742 0.492016
vt 0.352788 0.516779
vt 0.341638 0.512722
vt 0.352783 0.529438
vt 0.341667 0.525833
vt 0.403957 0.780204
vt 0.393032 0.772535
vt 0.382950 0.765907
vt 0.365150 0.740592
vt 0.364624 0.729541
vt 0.364443 0.717309
vt 0.403930 0.469734
vt 0.393014 0.477422
vt 0.382939 0.484066
vt 0.365150 0.509408
vt 0.364624 0.520459
vt 0.364443 0.532691
vt 0.407970 0.778770
vt 0.401787 0.770229
vt 0.397344 0.763118
vt 0.394986 0.737372
vt 0.395451 0.726621
vt 0.395611 0.714728
vt 0.407945 0.471169
vt 0.401770 0.479728
vt 0.397334 0.486855
vt 0.394986 0.512628
vt 0.395451 0.523379
vt 0.395611 0.535272
vt 0.412559 0.778158
vt 0.411052 0.769175
vt 0.410567 0.761622
vt 0.409604 0.735305
vt 0.409563 0.724746
vt 0.409549 0.713071
vt 0.412534 0.471780
vt 0.411035 0.480781
vt 0.410557 0.488351
vt 0.409604 0.514695
vt 0.409563 0.525254
vt 0.409549 0.536929
vt 0.420865 0.778526
vt 0.422266 0.769477
vt 0.423692 0.761626
vt 0.425004 0.734555
vt 0.425001 0.724091
vt 0.425000 0.712500
vt 0.420839 0.471408
vt 0.422249 0.480475
vt 0.423682 0.488344
vt 0.425004 0.515445
vt 0.425001 0.525909
vt 0.425000 0.537500
vt 0.598966 0.467518
vt 0.601464 0.462319
vt 0.617474 0.467004
vt 0.613557 0.473770
vt 0.632972 0.472369
vt 0.627538 0.479890
vt 0.658258 0.492016
vt 0.647197 0.505350
vt 0.658362 0.512722
vt 0.647212 0.516779
vt 0.658333 0.525833
vt 0.647217 0.529439
vt 0.601470 0.787594
vt 0.598973 0.782405
vt 0.613562 0.776174
vt 0.617478 0.782932
vt 0.627541 0.770075
vt 0.632975 0.777590
vt 0.647197 0.744650
vt 0.658258 0.757984
vt 0.647212 0.733221
vt 0.658362 0.737278
vt 0.647217 0.720562
vt 0.658333 0.724167
vt 0.596037 0.469721
vt 0.606962 0.477414
vt 0.617046 0.484061
vt 0.634850 0.509408
vt 0.635376 0.520459
vt 0.635557 0.532691
vt 0.596044 0.780204
vt 0.606967 0.772535
vt 0.617050 0.765907
vt 0.634850 0.740592
vt 0.635376 0.729541
vt 0.635558 0.717309
vt 0.592023 0.471157
vt 0.598207 0.479720
vt 0.602652 0.486851
vt 0.605014 0.512628
vt 0.604549 0.523379
vt 0.604389 0.535272
vt 0.592030 0.778770
vt 0.598213 0.770229
vt 0.602656 0.763119
vt 0.605014 0.737372
vt 0.604549 0.726621
vt 0.604389 0.714728
vt 0.587434 0.471768
vt 0.588942 0.480774
vt 0.589429 0.488347
vt 0.590396 0.514695
vt 0.590437 0.525254
vt 0.590451 0.536929
vt 0.587441 0.778158
vt 0.588948 0.769175
vt 0.589433 0.761622
vt 0.590396 0.735305
vt 0.590437 0.724746
vt 0.590451 0.713071
vt 0.579127 0.471396
vt 0.577727 0.480468
vt 0.576303 0.488341
vt 0.574996 0.515445
vt 0.574999 0.525909
vt 0.575000 0.537500
vt 0.579135 0.778526
vt 0.577734 0.769477
vt 0.576308 0.761626
vt 0.574996 0.734554
vt 0.574999 0.724091
vt 0.575000 0.712500
vt 1.000000 0.500000
vt 1.000000 1.000000
vt 0.968750 1.000000
vt 0.968750 0.500000
vt 0.937500 1.000000
vt 0.937500 0.500000
vt 0.906250 1.000000
vt 0.906250 0.500000
vt 0.875000 1.000000
vt 0.843750 1.000000
vt 0.843750 0.500000
vt 0.812500 1.000000
vt 0.812500 0.500000
vt 0.781250 1.000000
vt 0.781250 0.500000
vt 0.750000 1.000000
vt 0.750000 0.500000
vt 0.718750 1.000000
vt 0.718750 0.500000
vt 0.687500 1.000000
vt 0.687500 0.500000
vt 0.656250 1.000000
vt 0.656250 0.500000
vt 0.625000 0.500000
vt 0.593750 1.000000
vt 0.593750 0.500000
vt 0.562500 1.000000
vt 0.562500 0.500000
vt 0.531250 1.000000
vt 0.531250 0.500000
vt 0.500000 1.000000
vt 0.500000 0.500000
vt 0.468750 1.000000
vt 0.468750 0.500000
vt 0.437500 1.000000
vt 0.437500 0.500000
vt 0.406250 1.000000
vt 0.406250 0.500000
vt 0.343750 1.000000
vt 0.343750 0.500000
vt 0.312500 1.000000
vt 0.312500 0.500000
vt 0.281250 1.000000
vt 0.281250 0.500000
vt 0.250000 1.000000
vt 0.250000 0.500000
vt 0.218750 1.000000
vt 0.218750 0.500000
vt 0.187500 1.000000
vt 0.187500 0.500000
vt 0.156250 1.000000
vt 0.156250 0.500000
vt 0.125000 1.000000
vt 0.093750 1.000000
vt 0.093750 0.500000
vt 0.062500 1.000000
vt 0.062500 0.500000
vt 0.185843 0.095110
vt 0.217293 0.085570
vt 0.031250 1.000000
vt 0.031250 0.500000
vt 0.000000 1.000000
vt 0.000000 0.500000
vt 0.750000 0.490000
vt 0.796822 0.485388
vt 0.841844 0.471731
vt 0.883337 0.449553
vt 0.919706 0.419706
vt 0.949553 0.383337
vt 0.971731 0.341844
vt 0.985388 0.296822
vt 0.990000 0.250000
vt 0.985388 0.203178
vt 0.971731 0.158156
vt 0.949553 0.116663
vt 0.919706 0.080294
vt 0.883337 0.050447
vt 0.841844 0.028269
vt 0.796822 0.014612
vt 0.750000 0.010000
vt 0.703178 0.014612
vt 0.658156 0.028269
vt 0.616663 0.050447
vt 0.580294 0.080294
vt 0.550447 0.116663
vt 0.528269 0.158156
vt 0.514612 0.203178
vt 0.510000 0.250000
vt 0.514612 0.296822
vt 0.528269 0.341844
vt 0.550447 0.383337
vt 0.580294 0.419706
vt 0.616663 0.449553
vt 0.658156 0.471731
vt 0.703178 0.485388
vt 0.250000 0.417652
vt 0.282707 0.414430
vt 0.296822 0.485388
vt 0.250000 0.490000
vt 0.314157 0.404890
vt 0.341844 0.471731
vt 0.343142 0.389397
vt 0.383337 0.449553
vt 0.368548 0.368548
vt 0.419706 0.419706
vt 0.389397 0.343142
vt 0.449553 0.383337
vt 0.404890 0.314157
vt 0.471731 0.341844
vt 0.414430 0.282707
vt 0.485388 0.296822
vt 0.417652 0.250000
vt 0.490000 0.250000
vt 0.414430 0.217293
vt 0.485388 0.203178
vt 0.404890 0.185843
vt 0.471731 0.158156
vt 0.389397 0.156858
vt 0.449553 0.116663
vt 0.368547 0.131452
vt 0.419706 0.080294
vt 0.343142 0.110603
vt 0.383337 0.050447
vt 0.314157 0.095110
vt 0.341844 0.028269
vt 0.282707 0.085570
vt 0.296822 0.014612
vt 0.250000 0.082348
vt 0.250000 0.010000
vt 0.203178 0.014612
vt 0.158156 0.028269
vt 0.156858 0.110603
vt 0.116663 0.050447
vt 0.131452 0.131452
vt 0.080294 0.080294
vt 0.110603 0.156858
vt 0.050447 0.116663
vt 0.095110 0.185843
vt 0.028269 0.158156
vt 0.085570 0.217293
vt 0.014612 0.203178
vt 0.082348 0.250000
vt 0.010000 0.250000
vt 0.085570 0.282707
vt 0.014612 0.296822
vt 0.095110 0.314157
vt 0.028269 0.341844
vt 0.110603 0.343142
vt 0.050447 0.383337
vt 0.131452 0.368547
vt 0.080294 0.419706
vt 0.156858 0.389397
vt 0.116663 0.449553
vt 0.185843 0.404890
vt 0.158156 0.471731
vt 0.217293 0.414430
vt 0.203178 0.485388
vt 0.625000 0.250000
s 0
usemtl Black
f 3/1/1 6/2/1 4/3/1 1/4/1
f 3/5/2 7/6/2 8/7/2 6/2/2
f 5/8/3 2/9/3 24/9/3 11/8/3
f 11/8/3 24/9/3 23/9/3 12/8/3
f 12/8/3 23/9/3 22/9/3 13/8/3
f 13/8/3 22/9/3 21/9/3 14/8/3
f 24/10/4 20/11/4 19/11/4 23/10/4
f 23/10/4 19/11/4 18/11/4 22/10/4
f 20/12/1 17/13/1 16/13/1 19/12/1
f 19/12/1 16/13/1 15/13/1 18/12/1
f 17/13/5 11/8/5 12/8/5 16/13/5
f 16/13/5 12/8/5 13/8/5 15/13/5
f 28/12/1 27/13/1 25/13/1 26/12/1
f 10/13/6 9/12/6 26/12/6 25/13/6
f 30/14/7 35/15/7 37/16/7 34/17/7
f 34/17/8 37/16/8 38/18/8 33/19/8
f 33/20/9 38/18/9 39/21/9 32/22/9
f 32/22/10 39/21/10 40/23/10 31/24/10
f 31/24/11 40/23/11 36/25/11 29/26/11
f 48/27/12 41/12/12 43/12/12 52/28/12
f 52/28/13 43/12/13 44/12/13 51/29/13
f 51/29/14 44/12/14 45/30/14 50/31/14
f 50/31/15 45/30/15 46/32/15 49/33/15
f 49/33/16 46/32/16 42/34/16 47/35/16
f 60/8/17 53/9/17 55/9/17 64/36/17
f 64/36/18 55/9/18 56/9/18 63/37/18
f 63/37/19 56/38/19 57/39/19 62/40/19
f 62/40/20 57/39/20 58/41/20 61/42/20
f 61/42/21 58/41/21 54/43/21 59/44/21
f 66/45/22 71/12/22 73/12/22 70/46/22
f 70/46/23 73/12/23 74/12/23 69/47/23
f 69/47/24 74/12/24 75/12/24 68/48/24
f 68/48/25 75/12/25 76/49/25 67/50/25
f 67/50/26 76/49/26 72/12/26 65/13/26
f 47/35/5 36/25/5 40/23/5 49/33/5
f 49/33/5 40/23/5 39/21/5 50/31/5
f 50/31/5 39/21/5 38/18/5 51/29/5
f 51/29/5 38/18/5 37/16/5 52/28/5
f 52/28/5 37/16/5 35/15/5 48/27/5
f 41/51/4 30/52/4 34/53/4 43/54/4
f 43/54/4 34/53/4 33/20/4 44/55/4
f 44/55/4 33/20/4 32/22/4 45/56/4
f 45/56/4 32/22/4 31/24/4 46/57/4
f 46/57/4 31/24/4 29/26/4 42/58/4
f 59/44/5 66/45/5 70/46/5 61/42/5
f 61/42/5 70/46/5 69/47/5 62/40/5
f 62/40/5 69/47/5 68/48/5 63/37/5
f 63/37/5 68/48/5 67/50/5 64/36/5
f 64/36/5 67/50/5 65/13/5 60/8/5
f 71/59/4 54/60/4 58/61/4 73/62/4
f 73/62/4 58/61/4 57/63/4 74/64/4
f 74/64/4 57/63/4 56/65/4 75/66/4
f 75/66/4 56/65/4 55/67/4 76/68/4
f 76/68/4 55/67/4 53/10/4 72/69/4
f 30/52/4 41/51/4 2/10/4
f 35/15/3 30/14/3 2/9/3 5/8/3
f 7/6/2 29/26/2 36/25/2 8/7/2
f 42/58/4 29/26/4 7/6/4
f 48/27/5 35/15/5 5/8/5
f 8/7/5 36/25/5 47/35/5
f 4/3/6 47/35/6 42/34/6 1/70/6
f 41/12/1 48/27/1 17/13/1 20/12/1
f 1/71/4 42/58/4 7/6/4 3/5/4
f 2/10/4 41/51/4 20/11/4 24/10/4
f 48/27/5 5/8/5 11/8/5 17/13/5
f 6/2/5 8/7/5 47/35/5 4/3/5
f 54/60/4 71/59/4 9/11/4
f 10/13/6 59/44/6 54/43/6 9/12/6
f 14/8/3 21/9/3 53/9/3 60/8/3
f 21/10/4 72/69/4 53/10/4
f 65/13/5 14/8/5 60/8/5
f 59/44/5 10/13/5 66/45/5
f 66/45/5 10/13/5 25/13/5 27/13/5
f 15/13/5 13/8/5 14/8/5 65/13/5
f 18/12/1 15/13/1 65/13/1 72/12/1
f 71/12/2 66/45/2 27/13/2 28/12/2
f 22/10/4 18/11/4 72/69/4 21/10/4
f 9/11/4 71/59/4 28/11/4 26/11/4
f 79/1/1 77/4/1 80/3/1 82/2/1
f 79/5/2 82/2/2 84/7/2 83/6/2
f 81/8/3 87/8/3 100/9/3 78/9/3
f 87/8/3 88/8/3 99/9/3 100/9/3
f 88/8/3 89/8/3 98/9/3 99/9/3
f 89/8/3 90/8/3 97/9/3 98/9/3
f 100/10/5 99/10/5 95/11/5 96/11/5
f 99/10/5 98/10/5 94/11/5 95/11/5
f 96/12/1 95/12/1 92/13/1 93/13/1
f 95/12/1 94/12/1 91/13/1 92/13/1
f 93/13/4 92/13/4 88/8/4 87/8/4
f 92/13/4 91/13/4 89/8/4 88/8/4
f 104/12/1 102/12/1 101/13/1 103/13/1
f 86/13/6 101/13/6 102/12/6 85/12/6
f 106/14/7 110/17/7 113/16/7 111/15/7
f 110/17/8 109/19/8 114/18/8 113/16/8
f 109/20/9 108/22/9 115/21/9 114/18/9
f 108/22/10 107/24/10 116/23/10 115/21/10
f 107/24/11 105/26/11 112/25/11 116/23/11
f 124/27/12 128/28/12 119/12/12 117/12/12
f 128/28/13 127/29/13 120/12/13 119/12/13
f 127/29/14 126/31/14 121/30/14 120/12/14
f 126/31/15 125/33/15 122/32/15 121/30/15
f 125/33/16 123/35/16 118/34/16 122/32/16
f 136/8/17 140/36/17 131/9/17 129/9/17
f 140/36/18 139/37/18 132/9/18 131/9/18
f 139/37/19 138/40/19 133/39/19 132/38/19
f 138/40/20 137/42/20 134/41/20 133/39/20
f 137/42/21 135/44/21 130/43/21 134/41/21
f 142/45/22 146/46/22 149/12/22 147/12/22
f 146/46/23 145/47/23 150/12/23 149/12/23
f 145/47/24 144/48/24 151/12/24 150/12/24
f 144/48/25 143/50/25 152/49/25 151/12/25
f 143/50/26 141/13/26 148/12/26 152/49/26
f 123/35/4 125/33/4 116/23/4 112/25/4
f 125/33/4 126/31/4 115/21/4 116/23/4
f 126/31/4 127/29/4 114/18/4 115/21/4
f 127/29/4 128/28/4 113/16/4 114/18/4
f 128/28/4 124/27/4 111/15/4 113/16/4
f 117/51/5 119/54/5 110/53/5 106/52/5
f 119/54/5 120/55/5 109/20/5 110/53/5
f 120/55/5 121/56/5 108/22/5 109/20/5
f 121/56/5 122/57/5 107/24/5 108/22/5
f 122/57/5 118/58/5 105/26/5 107/24/5
f 135/44/4 137/42/4 146/46/4 142/45/4
f 137/42/4 138/40/4 145/47/4 146/46/4
f 138/40/4 139/37/4 144/48/4 145/47/4
f 139/37/4 140/36/4 143/50/4 144/48/4
f 140/36/4 136/8/4 141/13/4 143/50/4
f 147/59/5 149/62/5 134/61/5 130/60/5
f 149/62/5 150/64/5 133/63/5 134/61/5
f 150/64/5 151/66/5 132/65/5 133/63/5
f 151/66/5 152/68/5 131/67/5 132/65/5
f 152/68/5 148/69/5 129/10/5 131/67/5
f 106/52/5 78/10/5 117/51/5
f 111/15/3 81/8/3 78/9/3 106/14/3
f 83/6/2 84/7/2 112/25/2 105/26/2
f 118/58/5 83/6/5 105/26/5
f 124/27/4 81/8/4 111/15/4
f 84/7/4 123/35/4 112/25/4
f 80/3/6 77/70/6 118/34/6 123/35/6
f 117/12/1 96/12/1 93/13/1 124/27/1
f 77/71/5 79/5/5 83/6/5 118/58/5
f 78/10/5 100/10/5 96/11/5 117/51/5
f 124/27/4 93/13/4 87/8/4 81/8/4
f 82/2/4 80/3/4 123/35/4 84/7/4
f 130/60/5 85/11/5 147/59/5
f 86/13/6 85/12/6 130/43/6 135/44/6
f 90/8/3 136/8/3 129/9/3 97/9/3
f 97/10/5 129/10/5 148/69/5
f 141/13/4 136/8/4 90/8/4
f 135/44/4 142/45/4 86/13/4
f 142/45/4 103/13/4 101/13/4 86/13/4
f 91/13/4 141/13/4 90/8/4 89/8/4
f 94/12/1 148/12/1 141/13/1 91/13/1
f 147/12/2 104/12/2 103/13/2 142/45/2
f 98/10/5 97/10/5 148/69/5 94/11/5
f 85/11/5 102/11/5 104/11/5 147/59/5
s 1
f 478/446/377 476/447/378 554/447/349 555/446/351
f 537/485/317 538/484/316 568/544/379 567/542/375 566/540/373 565/538/371 564/536/369 563/534/367 562/532/365 561/530/363 560/528/361 559/526/411 558/524/357 557/522/355 556/520/353 555/446/351 554/447/349 553/516/347 552/514/345 551/512/343 550/510/341 549/508/339 548/506/337 547/504/335 546/502/333 545/500/331 544/498/329 543/496/327 542/494/325 541/492/323 540/490/321 539/488/319
f 452/494/386 450/492/385 541/492/323 542/494/325
f 442/484/381 504/544/410 568/544/379 538/484/316
f 480/520/398 478/446/377 555/446/351 556/520/353
f 454/496/387 452/494/386 542/494/325 543/496/327
f 482/522/399 480/520/398 556/520/353 557/522/355
f 456/498/388 454/496/387 543/496/327 544/498/329
f 484/524/400 482/522/399 557/522/355 558/524/357
f 458/500/389 456/498/388 544/498/329 545/500/331
f 486/526/401 484/524/400 558/524/357 559/526/411
f 460/502/390 458/500/389 545/500/331 546/502/333
f 488/528/402 486/526/401 559/526/411 560/528/361
f 462/504/391 460/502/390 546/502/333 547/504/335
f 490/530/403 488/528/402 560/528/361 561/530/363
f 464/506/392 462/504/391 547/504/335 548/506/337
f 492/532/404 490/530/403 561/530/363 562/532/365
f 466/508/393 464/506/392 548/506/337 549/508/339
f 494/534/405 492/532/404 562/532/365 563/534/367
f 468/510/394 466/508/393 549/508/339 550/510/341
f 496/536/406 494/534/405 563/534/367 564/536/369
f 470/512/395 468/510/394 550/510/341 551/512/343
f 444/485/382 442/484/381 538/484/316 537/485/317
f 498/538/407 496/536/406 564/536/369 565/538/371
f 472/514/396 470/512/395 551/512/343 552/514/345
f 446/488/383 444/485/382 537/485/317 539/488/319
f 500/540/408 498/538/407 565/538/371 566/540/373
f 474/516/397 472/514/396 552/514/345 553/516/347
f 448/490/384 446/488/383 539/488/319 540/490/321
f 502/542/409 500/540/408 566/540/373 567/542/375
f 476/447/378 474/516/397 553/516/347 554/447/349
f 450/492/385 448/490/384 540/490/321 541/492/323
f 504/544/410 502/542/409 567/542/375 568/544/379
f 606/446/395 683/446/343 682/447/345 604/447/396
f 665/485/379 667/488/375 668/490/373 669/492/371 670/494/369 671/496/367 672/498/365 673/500/363 674/502/361 675/504/359 676/506/357 677/508/355 678/510/353 679/512/351 680/514/349 681/516/347 682/447/345 683/446/343 684/520/341 685/522/339 686/524/337 687/526/412 688/528/333 689/530/331 690/532/329 691/534/327 692/536/325 693/538/323 694/540/321 695/542/319 696/544/317 666/484/316
f 580/494/406 670/494/369 669/492/371 578/492/407
f 570/484/381 666/484/316 696/544/317 632/544/382
f 608/520/394 684/520/341 683/446/343 606/446/395
f 582/496/405 671/496/367 670/494/369 580/494/406
f 610/522/393 685/522/339 684/520/341 608/520/394
f 584/498/404 672/498/365 671/496/367 582/496/405
f 612/524/392 686/524/337 685/522/339 610/522/393
f 586/500/403 673/500/363 672/498/365 584/498/404
f 614/526/391 687/526/412 686/524/337 612/524/392
f 588/502/402 674/502/361 673/500/363 586/500/403
f 616/528/390 688/528/333 687/526/412 614/526/391
f 590/504/401 675/504/359 674/502/361 588/502/402
f 618/530/389 689/530/331 688/528/333 616/528/390
f 592/506/400 676/506/357 675/504/359 590/504/401
f 620/532/388 690/532/329 689/530/331 618/530/389
f 594/508/399 677/508/355 676/506/357 592/506/400
f 622/534/387 691/534/327 690/532/329 620/532/388
f 596/510/398 678/510/353 677/508/355 594/508/399
f 624/536/386 692/536/325 691/534/327 622/534/387
f 598/512/377 679/512/351 678/510/353 596/510/398
f 572/485/410 665/485/379 666/484/316 570/484/381
f 626/538/385 693/538/323 692/536/325 624/536/386
f 600/514/378 680/514/349 679/512/351 598/512/377
f 574/488/409 667/488/375 665/485/379 572/485/410
f 628/540/384 694/540/321 693/538/323 626/538/385
f 602/516/397 681/516/347 680/514/349 600/514/378
f 576/490/408 668/490/373 667/488/375 574/488/409
f 630/542/383 695/542/319 694/540/321 628/540/384
f 604/447/396 682/447/345 681/516/347 602/516/397
f 578/492/407 669/492/371 668/490/373 576/490/408
f 632/544/382 696/544/317 695/542/319 630/542/383
s 0
f 697/71/4 698/10/4 700/546/4 699/5/4
f 703/2/5 704/412/5 702/8/5 701/3/5
f 701/3/6 702/8/6 698/38/6 697/70/6
f 699/1/1 703/2/1 701/3/1 697/4/1
f 704/412/3 700/19/3 698/9/3 702/8/3
s 1
usemtl Yellow
f 237/72/27 225/73/28 227/74/29 239/75/30
f 239/75/30 227/74/29 228/76/31 240/77/32
f 240/77/32 228/76/31 229/78/33 241/79/34
f 241/80/34 229/81/33 230/82/35 242/83/36
f 242/83/36 230/82/35 226/84/37 238/85/38
f 159/86/39 183/87/40 185/88/41 161/89/42
f 161/89/42 185/88/41 186/90/43 162/91/44
f 162/91/44 186/90/43 187/92/45 163/93/46
f 163/94/46 187/95/45 188/96/47 164/97/48
f 164/97/48 188/96/47 184/98/49 160/99/50
f 243/100/51 237/72/27 239/75/30 245/101/52
f 245/101/52 239/75/30 240/77/32 246/102/53
f 246/102/53 240/77/32 241/79/34 247/103/54
f 247/104/54 241/80/34 242/83/36 248/105/55
f 248/105/55 242/83/36 238/85/38 244/106/56
f 183/87/40 177/107/57 179/108/58 185/88/41
f 185/88/41 179/108/58 180/109/59 186/90/43
f 186/90/43 180/109/59 181/110/60 187/92/45
f 187/95/45 181/111/60 182/112/61 188/96/47
f 188/96/47 182/112/61 178/113/62 184/98/49
f 249/114/63 243/100/51 245/101/52 251/115/64
f 251/115/64 245/101/52 246/102/53 252/116/65
f 252/116/65 246/102/53 247/103/54 253/117/66
f 253/118/66 247/104/54 248/105/55 254/119/67
f 254/119/67 248/105/55 244/106/56 250/120/68
f 177/107/57 171/121/69 173/122/70 179/108/58
f 179/108/58 173/122/70 174/123/71 180/109/59
f 180/109/59 174/123/71 175/124/72 181/110/60
f 181/111/60 175/125/72 176/126/73 182/112/61
f 182/112/61 176/126/73 172/127/74 178/113/62
f 255/128/75 249/114/63 251/115/64 257/129/76
f 257/129/76 251/115/64 252/116/65 258/130/77
f 258/130/77 252/116/65 253/117/66 259/131/78
f 259/131/78 253/117/66 254/132/67 260/133/79
f 260/133/79 254/132/67 250/134/68 256/135/80
f 171/121/69 165/136/81 167/137/82 173/122/70
f 173/122/70 167/137/82 168/138/83 174/123/71
f 174/123/71 168/138/83 169/139/84 175/124/72
f 175/140/72 169/141/84 170/142/85 176/143/73
f 176/143/73 170/142/85 166/144/86 172/145/74
f 231/146/87 255/128/75 257/129/76 233/147/88
f 233/147/88 257/129/76 258/130/77 234/148/89
f 234/148/89 258/130/77 259/131/78 235/149/90
f 235/149/90 259/131/78 260/133/79 236/150/91
f 236/150/91 260/133/79 256/135/80 232/151/92
f 165/136/81 153/152/93 155/153/94 167/137/82
f 167/137/82 155/153/94 156/154/95 168/138/83
f 168/138/83 156/154/95 157/155/96 169/139/84
f 169/141/84 157/156/96 158/157/97 170/142/85
f 170/142/85 158/157/97 154/158/98 166/144/86
f 201/159/99 189/160/100 191/161/101 203/162/102
f 203/162/102 191/161/101 192/163/103 204/164/104
f 204/164/104 192/163/103 193/165/105 205/166/106
f 205/167/106 193/168/105 194/169/107 206/170/108
f 206/170/108 194/169/107 190/171/109 202/172/110
f 267/173/111 291/174/112 293/175/113 269/176/114
f 269/176/114 293/175/113 294/177/115 270/178/116
f 270/178/116 294/177/115 295/179/117 271/180/118
f 271/181/118 295/182/117 296/183/119 272/184/120
f 272/184/120 296/183/119 292/185/121 268/186/122
f 207/187/123 201/159/99 203/162/102 209/188/124
f 209/188/124 203/162/102 204/164/104 210/189/125
f 210/189/125 204/164/104 205/166/106 211/190/126
f 211/191/126 205/167/106 206/170/108 212/192/127
f 212/192/127 206/170/108 202/172/110 208/193/128
f 291/174/112 285/194/129 287/195/130 293/175/113
f 293/175/113 287/195/130 288/196/131 294/177/115
f 294/177/115 288/196/131 289/197/132 295/179/117
f 295/182/117 289/198/132 290/199/133 296/183/119
f 296/183/119 290/199/133 286/200/134 292/185/121
f 213/201/135 207/187/123 209/188/124 215/202/136
f 215/202/136 209/188/124 210/189/125 216/203/137
f 216/203/137 210/189/125 211/190/126 217/204/138
f 217/205/138 211/206/126 212/207/127 218/208/139
f 218/208/139 212/207/127 208/209/128 214/210/140
f 285/194/129 279/211/141 281/212/142 287/195/130
f 287/195/130 281/212/142 282/213/143 288/196/131
f 288/196/131 282/213/143 283/214/144 289/197/132
f 289/197/132 283/214/144 284/215/145 290/216/133
f 290/216/133 284/215/145 280/217/146 286/218/134
f 219/219/147 213/201/135 215/202/136 221/220/148
f 221/220/148 215/202/136 216/203/137 222/221/149
f 222/221/149 216/203/137 217/204/138 223/222/150
f 223/223/150 217/205/138 218/208/139 224/224/151
f 224/224/151 218/208/139 214/210/140 220/225/152
f 279/211/141 273/226/153 275/227/154 281/212/142
f 281/212/142 275/227/154 276/228/155 282/213/143
f 282/213/143 276/228/155 277/229/156 283/214/144
f 283/214/144 277/229/156 278/230/157 284/215/145
f 284/215/145 278/230/157 274/231/158 280/217/146
f 195/232/159 219/219/147 221/220/148 197/233/160
f 197/233/160 221/220/148 222/221/149 198/234/161
f 198/234/161 222/221/149 223/222/150 199/235/162
f 199/236/162 223/223/150 224/224/151 200/237/163
f 200/237/163 224/224/151 220/225/152 196/238/164
f 273/226/153 261/239/165 263/240/166 275/227/154
f 275/227/154 263/240/166 264/241/167 276/228/155
f 276/228/155 264/241/167 265/242/168 277/229/156
f 277/229/156 265/242/168 266/243/169 278/230/157
f 278/230/157 266/243/169 262/244/170 274/231/158
f 309/245/171 297/246/172 299/247/173 311/248/174
f 311/248/174 299/247/173 300/249/175 312/250/176
f 312/250/176 300/249/175 301/251/177 313/252/178
f 313/252/178 301/251/177 302/253/179 314/254/180
f 314/254/180 302/253/179 298/255/181 310/256/182
f 375/257/183 399/258/184 401/259/185 377/260/186
f 377/260/186 401/259/185 402/261/187 378/262/188
f 378/262/188 402/261/187 403/263/189 379/264/190
f 379/264/190 403/263/189 404/265/191 380/266/192
f 380/266/192 404/265/191 400/267/193 376/268/194
f 315/269/195 309/245/171 311/248/174 317/270/196
f 317/270/196 311/248/174 312/250/176 318/271/197
f 318/271/197 312/250/176 313/252/178 319/272/198
f 319/272/198 313/252/178 314/254/180 320/273/199
f 320/273/199 314/254/180 310/256/182 316/274/200
f 399/258/184 393/275/201 395/276/202 401/259/185
f 401/259/185 395/276/202 396/277/203 402/261/187
f 402/261/187 396/277/203 397/278/204 403/263/189
f 403/263/189 397/278/204 398/279/205 404/265/191
f 404/265/191 398/279/205 394/280/206 400/267/193
f 321/281/207 315/269/195 317/270/196 323/282/208
f 323/282/208 317/270/196 318/271/197 324/283/209
f 324/283/209 318/271/197 319/272/198 325/284/210
f 325/284/210 319/272/198 320/273/199 326/285/211
f 326/285/211 320/273/199 316/274/200 322/286/212
f 393/275/201 387/287/213 389/288/214 395/276/202
f 395/276/202 389/288/214 390/289/215 396/277/203
f 396/277/203 390/289/215 391/290/216 397/278/204
f 397/278/204 391/290/216 392/291/217 398/279/205
f 398/279/205 392/291/217 388/292/218 394/280/206
f 327/293/219 321/281/207 323/282/208 329/294/220
f 329/294/220 323/282/208 324/283/209 330/295/221
f 330/295/221 324/283/209 325/284/210 331/296/222
f 331/296/222 325/284/210 326/285/211 332/297/223
f 332/297/223 326/285/211 322/286/212 328/298/224
f 387/287/213 381/299/225 383/300/226 389/288/214
f 389/288/214 383/300/226 384/301/227 390/289/215
f 390/289/215 384/301/227 385/302/228 391/290/216
f 391/290/216 385/302/228 386/303/229 392/291/217
f 392/291/217 386/303/229 382/304/230 388/292/218
f 303/305/231 327/293/219 329/294/220 305/306/232
f 305/306/232 329/294/220 330/295/221 306/307/233
f 306/307/233 330/295/221 331/296/222 307/308/234
f 307/308/234 331/296/222 332/297/223 308/309/235
f 308/309/235 332/297/223 328/298/224 304/310/236
f 381/299/225 369/311/237 371/312/238 383/300/226
f 383/300/226 371/312/238 372/313/239 384/301/227
f 384/301/227 372/313/239 373/314/240 385/302/228
f 385/302/228 373/314/240 374/315/241 386/303/229
f 386/303/229 374/315/241 370/316/242 382/304/230
f 417/317/243 405/318/244 407/319/245 419/320/246
f 419/320/246 407/319/245 408/321/247 420/322/248
f 420/322/248 408/321/247 409/323/249 421/324/250
f 421/324/250 409/323/249 410/325/251 422/326/252
f 422/326/252 410/325/251 406/327/253 418/328/254
f 339/329/255 363/330/256 365/331/257 341/332/258
f 341/332/258 365/331/257 366/333/259 342/334/260
f 342/334/260 366/333/259 367/335/261 343/336/262
f 343/336/262 367/335/261 368/337/263 344/338/264
f 344/338/264 368/337/263 364/339/265 340/340/266
f 423/341/267 417/317/243 419/320/246 425/342/268
f 425/342/268 419/320/246 420/322/248 426/343/269
f 426/343/269 420/322/248 421/324/250 427/344/270
f 427/344/270 421/324/250 422/326/252 428/345/271
f 428/345/271 422/326/252 418/328/254 424/346/272
f 363/330/256 357/347/273 359/348/274 365/331/257
f 365/331/257 359/348/274 360/349/275 366/333/259
f 366/333/259 360/349/275 361/350/276 367/335/261
f 367/335/261 361/350/276 362/351/277 368/337/263
f 368/337/263 362/351/277 358/352/278 364/339/265
f 429/353/279 423/341/267 425/342/268 431/354/280
f 431/354/280 425/342/268 426/343/269 432/355/281
f 432/355/281 426/343/269 427/344/270 433/356/282
f 433/356/282 427/344/270 428/345/271 434/357/283
f 434/357/283 428/345/271 424/346/272 430/358/284
f 357/347/273 351/359/285 353/360/286 359/348/274
f 359/348/274 353/360/286 354/361/287 360/349/275
f 360/349/275 354/361/287 355/362/288 361/350/276
f 361/350/276 355/362/288 356/363/289 362/351/277
f 362/351/277 356/363/289 352/364/290 358/352/278
f 435/365/291 429/353/279 431/354/280 437/366/292
f 437/366/292 431/354/280 432/355/281 438/367/293
f 438/367/293 432/355/281 433/356/282 439/368/294
f 439/368/294 433/356/282 434/357/283 440/369/295
f 440/369/295 434/357/283 430/358/284 436/370/296
f 351/359/285 345/371/297 347/372/298 353/360/286
f 353/360/286 347/372/298 348/373/299 354/361/287
f 354/361/287 348/373/299 349/374/300 355/362/288
f 355/362/288 349/374/300 350/375/301 356/363/289
f 356/363/289 350/375/301 346/376/302 352/364/290
f 411/377/303 435/365/291 437/366/292 413/378/304
f 413/378/304 437/366/292 438/367/293 414/379/305
f 414/379/305 438/367/293 439/368/294 415/380/306
f 415/380/306 439/368/294 440/369/295 416/381/307
f 416/381/307 440/369/295 436/370/296 412/382/308
f 345/371/297 333/383/309 335/384/310 347/372/298
f 347/372/298 335/384/310 336/385/311 348/373/299
f 348/373/299 336/385/311 337/386/312 349/374/300
f 349/374/300 337/386/312 338/387/313 350/375/301
f 350/375/301 338/387/313 334/388/314 346/376/302
f 225/73/28 375/257/183 377/260/186 227/74/29
f 227/74/29 377/260/186 378/262/188 228/76/31
f 228/76/31 378/262/188 379/264/190 229/78/33
f 229/81/33 379/264/190 380/266/192 230/82/35
f 230/82/35 380/266/192 376/268/194 226/84/37
f 297/246/172 159/86/39 161/89/42 299/247/173
f 299/247/173 161/89/42 162/91/44 300/249/175
f 300/249/175 162/91/44 163/93/46 301/251/177
f 301/251/177 163/94/46 164/97/48 302/253/179
f 302/253/179 164/97/48 160/99/50 298/255/181
f 153/152/93 195/232/159 197/233/160 155/153/94
f 155/153/94 197/233/160 198/234/161 156/154/95
f 156/154/95 198/234/161 199/235/162 157/155/96
f 157/156/96 199/236/162 200/237/163 158/157/97
f 158/157/97 200/237/163 196/238/164 154/158/98
f 261/239/165 231/146/87 233/147/88 263/240/166
f 263/240/166 233/147/88 234/148/89 264/241/167
f 264/241/167 234/148/89 235/149/90 265/242/168
f 265/242/168 235/149/90 236/150/91 266/243/169
f 266/243/169 236/150/91 232/151/92 262/244/170
f 304/310/236 334/388/314 338/387/313 308/309/235
f 308/309/235 338/387/313 337/386/312 307/308/234
f 307/308/234 337/386/312 336/385/311 306/307/233
f 306/307/233 336/385/311 335/384/310 305/306/232
f 305/306/232 335/384/310 333/383/309 303/305/231
f 340/340/266 190/171/109 194/169/107 344/338/264
f 344/338/264 194/169/107 193/168/105 343/336/262
f 343/336/262 193/165/105 192/163/103 342/334/260
f 342/334/260 192/163/103 191/161/101 341/332/258
f 341/332/258 191/161/101 189/160/100 339/329/255
f 405/318/244 267/173/111 269/176/114 407/319/245
f 407/319/245 269/176/114 270/178/116 408/321/247
f 408/321/247 270/178/116 271/180/118 409/323/249
f 409/323/249 271/181/118 272/184/120 410/325/251
f 410/325/251 272/184/120 268/186/122 406/327/253
f 412/382/308 370/316/242 374/315/241 416/381/307
f 416/381/307 374/315/241 373/314/240 415/380/306
f 415/380/306 373/314/240 372/313/239 414/379/305
f 414/379/305 372/313/239 371/312/238 413/378/304
f 413/378/304 371/312/238 369/311/237 411/377/303
f 297/246/172 309/245/171 315/269/195 321/281/207 327/293/219 303/305/231 333/383/309 345/371/297 351/359/285 357/347/273 363/330/256 339/329/255 189/160/100 201/159/99 207/187/123 213/201/135 219/219/147 195/232/159 153/152/93 165/136/81 171/121/69 177/107/57 183/87/40 159/86/39
f 256/135/80 166/144/86 154/158/98 232/151/92
f 154/158/98 196/238/164 262/244/170 232/151/92
f 226/84/37 376/268/194 298/255/181 160/99/50
f 226/84/37 160/99/50 184/98/49 238/85/38
f 250/134/68 172/145/74 166/144/86 256/135/80
f 244/106/56 178/113/62 172/127/74 250/120/68
f 238/85/38 184/98/49 178/113/62 244/106/56
f 190/171/109 268/186/122 292/185/121 202/172/110
f 406/327/253 268/186/122 190/171/109 340/340/266
f 220/225/152 274/231/158 262/244/170 196/238/164
f 202/172/110 292/185/121 286/200/134 208/193/128
f 208/209/128 286/218/134 280/217/146 214/210/140
f 214/210/140 280/217/146 274/231/158 220/225/152
f 225/73/28 237/72/27 243/100/51 249/114/63 255/128/75 231/146/87 261/239/165 273/226/153 279/211/141 285/194/129 291/174/112 267/173/111 405/318/244 417/317/243 423/341/267 429/353/279 435/365/291 411/377/303 369/311/237 381/299/225 387/287/213 393/275/201 399/258/184 375/257/183
f 298/255/181 376/268/194 400/267/193 310/256/182
f 328/298/224 382/304/230 370/316/242 304/310/236
f 370/316/242 412/382/308 334/388/314 304/310/236
f 310/256/182 400/267/193 394/280/206 316/274/200
f 316/274/200 394/280/206 388/292/218 322/286/212
f 322/286/212 388/292/218 382/304/230 328/298/224
f 436/370/296 346/376/302 334/388/314 412/382/308
f 406/327/253 340/340/266 364/339/265 418/328/254
f 430/358/284 352/364/290 346/376/302 436/370/296
f 424/346/272 358/352/278 352/364/290 430/358/284
f 418/328/254 364/339/265 358/352/278 424/346/272
f 441/452/315 443/453/318 445/454/320 447/455/322 449/456/324 451/457/326 453/458/328 455/459/330 457/460/332 459/461/334 461/462/336 463/463/338 465/464/340 467/465/342 469/466/344 471/467/346 473/468/348 475/469/350 477/470/352 479/471/354 481/472/356 483/473/358 485/474/360 487/475/362 489/476/364 491/477/366 493/478/368 495/479/370 497/480/372 499/481/374 501/482/376 503/483/380
f 569/452/315 631/483/318 629/482/320 627/481/322 625/480/324 623/479/326 621/478/328 619/477/330 617/476/332 615/475/334 613/474/336 611/473/338 609/472/340 607/471/342 605/470/344 603/469/346 601/468/348 599/467/350 597/466/352 595/465/354 593/464/356 591/463/358 589/462/360 587/461/362 585/460/364 583/459/366 581/458/368 579/457/370 577/456/372 575/455/374 573/454/376 571/453/380
s 0
f 699/5/2 700/546/2 704/412/2 703/2/2
s 1
usemtl White
f 441/389/315 506/390/316 505/391/317 443/392/318
f 443/392/318 505/391/317 507/393/319 445/394/320
f 445/394/320 507/393/319 508/395/321 447/396/322
f 447/396/322 508/395/321 509/397/323 449/19/324
f 449/19/324 509/397/323 510/398/325 451/399/326
f 451/399/326 510/398/325 511/400/327 453/401/328
f 453/401/328 511/400/327 512/402/329 455/403/330
f 455/403/330 512/402/329 513/404/331 457/405/332
f 457/405/332 513/404/331 514/406/333 459/407/334
f 459/407/334 514/406/333 515/408/335 461/409/336
f 461/409/336 515/408/335 516/410/337 463/411/338
f 463/411/338 516/410/337 517/38/339 465/412/340
f 465/412/340 517/38/339 518/413/341 467/414/342
f 467/414/342 518/413/341 519/415/343 469/416/344
f 469/416/344 519/415/343 520/417/345 471/418/346
f 471/418/346 520/417/345 521/419/347 473/420/348
f 473/420/348 521/419/347 522/421/349 475/422/350
f 475/422/350 522/421/349 523/423/351 477/424/352
f 477/424/352 523/423/351 524/425/353 479/426/354
f 479/426/354 524/425/353 525/70/355 481/2/356
f 481/2/356 525/70/355 526/427/357 483/428/358
f 483/428/358 526/427/357 527/429/359 485/430/360
f 485/430/360 527/429/359 528/431/361 487/432/362
f 487/432/362 528/431/361 529/433/363 489/434/364
f 489/434/364 529/433/363 530/435/365 491/436/366
f 491/436/366 530/435/365 531/437/367 493/438/368
f 493/438/368 531/437/367 532/439/369 495/440/370
f 495/440/370 532/439/369 533/441/371 497/1/372
f 497/1/372 533/441/371 534/442/373 499/443/374
f 499/443/374 534/442/373 535/444/375 501/445/376
f 501/445/376 535/444/375 536/448/379 503/449/380
f 503/449/380 536/448/379 506/450/316 441/451/315
f 442/484/381 444/485/382 505/486/317 506/487/316
f 444/485/382 446/488/383 507/489/319 505/486/317
f 446/488/383 448/490/384 508/491/321 507/489/319
f 448/490/384 450/492/385 509/493/323 508/491/321
f 450/492/385 452/494/386 510/495/325 509/493/323
f 452/494/386 454/496/387 511/497/327 510/495/325
f 454/496/387 456/498/388 512/499/329 511/497/327
f 456/498/388 458/500/389 513/501/331 512/499/329
f 458/500/389 460/502/390 514/503/333 513/501/331
f 460/502/390 462/504/391 515/505/335 514/503/333
f 462/504/391 464/506/392 516/507/337 515/505/335
f 464/506/392 466/508/393 517/509/339 516/507/337
f 466/508/393 468/510/394 518/511/341 517/509/339
f 468/510/394 470/512/395 519/513/343 518/511/341
f 470/512/395 472/514/396 520/515/345 519/513/343
f 472/514/396 474/516/397 521/517/347 520/515/345
f 474/516/397 476/447/378 522/518/349 521/517/347
f 476/447/378 478/446/377 523/519/351 522/518/349
f 478/446/377 480/520/398 524/521/353 523/519/351
f 480/520/398 482/522/399 525/523/355 524/521/353
f 482/522/399 484/524/400 526/525/357 525/523/355
f 484/524/400 486/526/401 527/527/359 526/525/357
f 486/526/401 488/528/402 528/529/361 527/527/359
f 488/528/402 490/530/403 529/531/363 528/529/361
f 490/530/403 492/532/404 530/533/365 529/531/363
f 492/532/404 494/534/405 531/535/367 530/533/365
f 494/534/405 496/536/406 532/537/369 531/535/367
f 496/536/406 498/538/407 533/539/371 532/537/369
f 498/538/407 500/540/408 534/541/373 533/539/371
f 500/540/408 502/542/409 535/543/375 534/541/373
f 502/542/409 504/544/410 536/545/379 535/543/375
f 504/544/410 442/484/381 506/487/316 536/545/379
f 569/389/315 571/392/380 633/391/379 634/390/316
f 571/392/380 573/394/376 635/393/375 633/391/379
f 573/394/376 575/396/374 636/395/373 635/393/375
f 575/396/374 577/19/372 637/397/371 636/395/373
f 577/19/372 579/399/370 638/398/369 637/397/371
f 579/399/370 581/401/368 639/400/367 638/398/369
f 581/401/368 583/403/366 640/402/365 639/400/367
f 583/403/366 585/405/364 641/404/363 640/402/365
f 585/405/364 587/407/362 642/406/361 641/404/363
f 587/407/362 589/409/360 643/408/359 642/406/361
f 589/409/360 591/411/358 644/410/357 643/408/359
f 591/411/358 593/412/356 645/38/355 644/410/357
f 593/412/356 595/414/354 646/413/353 645/38/355
f 595/414/354 597/416/352 647/415/351 646/413/353
f 597/416/352 599/418/350 648/417/349 647/415/351
f 599/418/350 601/420/348 649/419/347 648/417/349
f 601/420/348 603/422/346 650/421/345 649/419/347
f 603/422/346 605/424/344 651/423/343 650/421/345
f 605/424/344 607/426/342 652/425/341 651/423/343
f 607/426/342 609/2/340 653/70/339 652/425/341
f 609/2/340 611/428/338 654/427/337 653/70/339
f 611/428/338 613/430/336 655/429/335 654/427/337
f 613/430/336 615/432/334 656/431/333 655/429/335
f 615/432/334 617/434/332 657/433/331 656/431/333
f 617/434/332 619/436/330 658/435/329 657/433/331
f 619/436/330 621/438/328 659/437/327 658/435/329
f 621/438/328 623/440/326 660/439/325 659/437/327
f 623/440/326 625/1/324 661/441/323 660/439/325
f 625/1/324 627/443/322 662/442/321 661/441/323
f 627/443/322 629/445/320 663/444/319 662/442/321
f 629/445/320 631/449/318 664/448/317 663/444/319
f 631/449/318 569/451/315 634/450/316 664/448/317
f 570/484/381 634/487/316 633/486/379 572/485/410
f 572/485/410 633/486/379 635/489/375 574/488/409
f 574/488/409 635/489/375 636/491/373 576/490/408
f 576/490/408 636/491/373 637/493/371 578/492/407
f 578/492/407 637/493/371 638/495/369 580/494/406
f 580/494/406 638/495/369 639/497/367 582/496/405
f 582/496/405 639/497/367 640/499/365 584/498/404
f 584/498/404 640/499/365 641/501/363 586/500/403
f 586/500/403 641/501/363 642/503/361 588/502/402
f 588/502/402 642/503/361 643/505/359 590/504/401
f 590/504/401 643/505/359 644/507/357 592/506/400
f 592/506/400 644/507/357 645/509/355 594/508/399
f 594/508/399 645/509/355 646/511/353 596/510/398
f 596/510/398 646/511/353 647/513/351 598/512/377
f 598/512/377 647/513/351 648/515/349 600/514/378
f 600/514/378 648/515/349 649/517/347 602/516/397
f 602/516/397 649/517/347 650/518/345 604/447/396
f 604/447/396 650/518/345 651/519/343 606/446/395
f 606/446/395 651/519/343 652/521/341 608/520/394
f 608/520/394 652/521/341 653/523/339 610/522/393
f 610/522/393 653/523/339 654/525/337 612/524/392
f 612/524/392 654/525/337 655/527/335 614/526/391
f 614/526/391 655/527/335 656/529/333 616/528/390
f 616/528/390 656/529/333 657/531/331 618/530/389
f 618/530/389 657/531/331 658/533/329 620/532/388
f 620/532/388 658/533/329 659/535/327 622/534/387
f 622/534/387 659/535/327 660/537/325 624/536/386
f 624/536/386 660/537/325 661/539/323 626/538/385
f 626/538/385 661/539/323 662/541/321 628/540/384
f 628/540/384 662/541/321 663/543/319 630/542/383
f 630/542/383 663/543/319 664/545/317 632/544/382
f 632/544/382 664/545/317 634/487/316 570/484/381
