# Blender 5.1.1
# www.blender.org
mtllib RotateTrigger.mtl
o Cylinder
v 0.000000 0.000000 -0.550000
v 0.000000 0.100000 -0.550000
v 0.107300 0.000000 -0.539432
v 0.107300 0.100000 -0.539432
v 0.210476 0.000000 -0.508134
v 0.210476 0.100000 -0.508134
v 0.305564 0.000000 -0.457308
v 0.305564 0.100000 -0.457308
v 0.388909 0.000000 -0.388909
v 0.388909 0.100000 -0.388909
v 0.457308 0.000000 -0.305564
v 0.457308 0.100000 -0.305564
v 0.508134 0.000000 -0.210476
v 0.508134 0.100000 -0.210476
v 0.539432 0.000000 -0.107300
v 0.539432 0.100000 -0.107300
v 0.550000 0.000000 -0.000000
v 0.550000 0.100000 -0.000000
v 0.539432 0.000000 0.107300
v 0.539432 0.100000 0.107300
v 0.508134 0.000000 0.210476
v 0.508134 0.100000 0.210476
v 0.457308 0.000000 0.305564
v 0.457308 0.100000 0.305564
v 0.388909 0.000000 0.388909
v 0.388909 0.100000 0.388909
v 0.305564 0.000000 0.457308
v 0.305564 0.100000 0.457308
v 0.210476 0.000000 0.508134
v 0.210476 0.100000 0.508134
v 0.107300 0.000000 0.539432
v 0.107300 0.100000 0.539432
v 0.000000 0.000000 0.550000
v 0.000000 0.100000 0.550000
v -0.107300 0.000000 0.539432
v -0.107300 0.100000 0.539432
v -0.210476 0.000000 0.508134
v -0.210476 0.100000 0.508134
v -0.305564 0.000000 0.457308
v -0.305564 0.100000 0.457308
v -0.388909 0.000000 0.388909
v -0.388909 0.100000 0.388909
v -0.457308 0.000000 0.305564
v -0.457308 0.100000 0.305564
v -0.508134 0.000000 0.210476
v -0.508134 0.100000 0.210476
v -0.539432 0.000000 0.107300
v -0.539432 0.100000 0.107300
v -0.550000 0.000000 -0.000000
v -0.550000 0.100000 -0.000000
v -0.539432 0.000000 -0.107300
v -0.539432 0.100000 -0.107300
v -0.508134 0.000000 -0.210476
v -0.508134 0.100000 -0.210476
v -0.457308 0.000000 -0.305564
v -0.457308 0.100000 -0.305564
v -0.388909 0.000000 -0.388909
v -0.388909 0.100000 -0.388909
v -0.305564 0.000000 -0.457308
v -0.305564 0.100000 -0.457308
v -0.210476 0.000000 -0.508134
v -0.210476 0.100000 -0.508134
v -0.107300 0.000000 -0.539432
v -0.107300 0.100000 -0.539432
vn 0.0980 -0.0000 -0.9952
vn 0.2903 -0.0000 -0.9569
vn 0.4714 -0.0000 -0.8819
vn 0.6344 -0.0000 -0.7730
vn 0.7730 -0.0000 -0.6344
vn 0.8819 -0.0000 -0.4714
vn 0.9569 -0.0000 -0.2903
vn 0.9952 -0.0000 -0.0980
vn 0.9952 -0.0000 0.0980
vn 0.9569 -0.0000 0.2903
vn 0.8819 -0.0000 0.4714
vn 0.7730 -0.0000 0.6344
vn 0.6344 -0.0000 0.7730
vn 0.4714 -0.0000 0.8819
vn 0.2903 -0.0000 0.9569
vn 0.0980 -0.0000 0.9952
vn -0.0980 -0.0000 0.9952
vn -0.2903 -0.0000 0.9569
vn -0.4714 -0.0000 0.8819
vn -0.6344 -0.0000 0.7730
vn -0.7730 -0.0000 0.6344
vn -0.8819 -0.0000 0.4714
vn -0.9569 -0.0000 0.2903
vn -0.9952 -0.0000 0.0980
vn -0.9952 -0.0000 -0.0980
vn -0.9569 -0.0000 -0.2903
vn -0.8819 -0.0000 -0.4714
vn -0.7730 -0.0000 -0.6344
vn -0.6344 -0.0000 -0.7730
vn -0.4714 -0.0000 -0.8819
vn -0.0000 1.0000 -0.0000
vn -0.2903 -0.0000 -0.9569
vn -0.0980 -0.0000 -0.9952
vn -0.0000 -1.0000 -0.0000
vt 0.500000 0.631481
vt 0.441156 0.946744
vt 0.536422 0.937361
vt 0.525651 0.628955
vt 0.628027 0.909573
vt 0.550316 0.621473
vt 0.712451 0.864447
vt 0.573047 0.609323
vt 0.786449 0.803719
vt 0.592971 0.592971
vt 0.847178 0.729720
vt 0.609323 0.573047
vt 0.892304 0.645297
vt 0.621473 0.550316
vt 0.920092 0.553691
vt 0.628955 0.525651
vt 0.929475 0.458425
vt 0.631481 0.500000
vt 0.920092 0.363159
vt 0.628955 0.474349
vt 0.892304 0.271554
vt 0.621473 0.449684
vt 0.847178 0.187130
vt 0.609323 0.426953
vt 0.786449 0.113131
vt 0.592971 0.407029
vt 0.712451 0.052403
vt 0.573047 0.390677
vt 0.628027 0.007277
vt 0.550316 0.378527
vt 0.536422 -0.020511
vt 0.525651 0.371045
vt 0.441156 -0.029894
vt 0.500000 0.368519
vt 0.345889 -0.020511
vt 0.474349 0.371045
vt 0.254284 0.007277
vt 0.449684 0.378527
vt 0.169860 0.052403
vt 0.426953 0.390677
vt 0.095862 0.113131
vt 0.407029 0.407029
vt 0.035133 0.187130
vt 0.390677 0.426953
vt -0.009992 0.271554
vt 0.378527 0.449684
vt -0.037780 0.363159
vt 0.371045 0.474349
vt -0.047163 0.458425
vt 0.368519 0.500000
vt -0.037780 0.553691
vt 0.371045 0.525651
vt -0.009992 0.645297
vt 0.378527 0.550316
vt 0.035133 0.729720
vt 0.390677 0.573047
vt 0.095862 0.803719
vt 0.407029 0.592971
vt 0.169860 0.864447
vt 0.426953 0.609323
vt 0.254284 0.909573
vt 0.449684 0.621473
vt 0.345889 0.937361
vt 0.474349 0.628955
s 0
usemtl Rotate
f 4/3/31 2/2/31 64/63/31 62/61/31 60/59/31 58/57/31 56/55/31 54/53/31 52/51/31 50/49/31 48/47/31 46/45/31 44/43/31 42/41/31 40/39/31 38/37/31 36/35/31 34/33/31 32/31/31 30/29/31 28/27/31 26/25/31 24/23/31 22/21/31 20/19/31 18/17/31 16/15/31 14/13/31 12/11/31 10/9/31 8/7/31 6/5/31
usemtl White
f 1/1/1 2/2/1 4/3/1 3/4/1
f 3/4/2 4/3/2 6/5/2 5/6/2
f 5/6/3 6/5/3 8/7/3 7/8/3
f 7/8/4 8/7/4 10/9/4 9/10/4
f 9/10/5 10/9/5 12/11/5 11/12/5
f 11/12/6 12/11/6 14/13/6 13/14/6
f 13/14/7 14/13/7 16/15/7 15/16/7
f 15/16/8 16/15/8 18/17/8 17/18/8
f 17/18/9 18/17/9 20/19/9 19/20/9
f 19/20/10 20/19/10 22/21/10 21/22/10
f 21/22/11 22/21/11 24/23/11 23/24/11
f 23/24/12 24/23/12 26/25/12 25/26/12
f 25/26/13 26/25/13 28/27/13 27/28/13
f 27/28/14 28/27/14 30/29/14 29/30/14
f 29/30/15 30/29/15 32/31/15 31/32/15
f 31/32/16 32/31/16 34/33/16 33/34/16
f 33/34/17 34/33/17 36/35/17 35/36/17
f 35/36/18 36/35/18 38/37/18 37/38/18
f 37/38/19 38/37/19 40/39/19 39/40/19
f 39/40/20 40/39/20 42/41/20 41/42/20
f 41/42/21 42/41/21 44/43/21 43/44/21
f 43/44/22 44/43/22 46/45/22 45/46/22
f 45/46/23 46/45/23 48/47/23 47/48/23
f 47/48/24 48/47/24 50/49/24 49/50/24
f 49/50/25 50/49/25 52/51/25 51/52/25
f 51/52/26 52/51/26 54/53/26 53/54/26
f 53/54/27 54/53/27 56/55/27 55/56/27
f 55/56/28 56/55/28 58/57/28 57/58/28
f 57/58/29 58/57/29 60/59/29 59/60/29
f 59/60/30 60/59/30 62/61/30 61/62/30
f 61/62/32 62/61/32 64/63/32 63/64/32
f 63/64/33 64/63/33 2/2/33 1/1/33
f 1/1/34 3/4/34 5/6/34 7/8/34 9/10/34 11/12/34 13/14/34 15/16/34 17/18/34 19/20/34 21/22/34 23/24/34 25/26/34 27/28/34 29/30/34 31/32/34 33/34/34 35/36/34 37/38/34 39/40/34 41/42/34 43/44/34 45/46/34 47/48/34 49/50/34 51/52/34 53/54/34 55/56/34 57/58/34 59/60/34 61/62/34 63/64/34
