# Blender 5.1.1
# www.blender.org
mtllib Teleporter1.mtl
o Cylinder.001
v 0.000000 0.130000 -0.450000
v 0.000000 0.160000 -0.399758
v 0.087791 0.130000 -0.441353
v 0.077989 0.160000 -0.392077
v 0.172208 0.130000 -0.415746
v 0.152981 0.160000 -0.369328
v 0.250007 0.130000 -0.374161
v 0.222094 0.160000 -0.332387
v 0.318198 0.130000 -0.318198
v 0.282672 0.160000 -0.282672
v 0.374161 0.130000 -0.250007
v 0.332387 0.160000 -0.222094
v 0.415746 0.130000 -0.172208
v 0.369328 0.160000 -0.152981
v 0.441353 0.130000 -0.087791
v 0.392077 0.160000 -0.077989
v 0.450000 0.130000 -0.000000
v 0.399758 0.160000 -0.000000
v 0.441353 0.130000 0.087791
v 0.392077 0.160000 0.077989
v 0.415746 0.130000 0.172208
v 0.369328 0.160000 0.152981
v 0.374161 0.130000 0.250007
v 0.332387 0.160000 0.222094
v 0.318198 0.130000 0.318198
v 0.282672 0.160000 0.282672
v 0.250007 0.130000 0.374161
v 0.222094 0.160000 0.332387
v 0.172208 0.130000 0.415746
v 0.152981 0.160000 0.369328
v 0.087791 0.130000 0.441353
v 0.077989 0.160000 0.392077
v 0.000000 0.130000 0.450000
v 0.000000 0.160000 0.399758
v -0.087791 0.130000 0.441353
v -0.077989 0.160000 0.392077
v -0.172208 0.130000 0.415746
v -0.152981 0.160000 0.369328
v -0.250007 0.130000 0.374161
v -0.222094 0.160000 0.332387
v -0.318198 0.130000 0.318198
v -0.282672 0.160000 0.282672
v -0.374161 0.130000 0.250007
v -0.332387 0.160000 0.222094
v -0.415746 0.130000 0.172208
v -0.369328 0.160000 0.152981
v -0.441353 0.130000 0.087791
v -0.392077 0.160000 0.077989
v -0.450000 0.130000 -0.000000
v -0.399758 0.160000 -0.000000
v -0.441353 0.130000 -0.087791
v -0.392077 0.160000 -0.077989
v -0.415746 0.130000 -0.172208
v -0.369328 0.160000 -0.152981
v -0.374161 0.130000 -0.250007
v -0.332387 0.160000 -0.222094
v -0.318198 0.130000 -0.318198
v -0.282672 0.160000 -0.282672
v -0.250007 0.130000 -0.374161
v -0.222094 0.160000 -0.332387
v -0.172208 0.130000 -0.415746
v -0.152981 0.160000 -0.369328
v -0.087791 0.130000 -0.441353
v -0.077989 0.160000 -0.392077
v 0.087791 0.160000 -0.441353
v 0.000000 0.160000 -0.450000
v 0.172208 0.160000 -0.415746
v 0.250007 0.160000 -0.374161
v 0.318198 0.160000 -0.318198
v 0.374161 0.160000 -0.250007
v 0.415746 0.160000 -0.172208
v 0.441353 0.160000 -0.087791
v 0.450000 0.160000 -0.000000
v 0.441353 0.160000 0.087791
v 0.415746 0.160000 0.172208
v 0.374161 0.160000 0.250007
v 0.318198 0.160000 0.318198
v 0.250007 0.160000 0.374161
v 0.172208 0.160000 0.415746
v 0.087791 0.160000 0.441353
v 0.000000 0.160000 0.450000
v -0.087791 0.160000 0.441353
v -0.172208 0.160000 0.415746
v -0.250007 0.160000 0.374161
v -0.318198 0.160000 0.318198
v -0.374161 0.160000 0.250007
v -0.415746 0.160000 0.172208
v -0.441353 0.160000 0.087791
v -0.450000 0.160000 -0.000000
v -0.441353 0.160000 -0.087791
v -0.415746 0.160000 -0.172208
v -0.374161 0.160000 -0.250007
v -0.318198 0.160000 -0.318198
v -0.250007 0.160000 -0.374161
v -0.172208 0.160000 -0.415746
v -0.087791 0.160000 -0.441353
v 0.077989 0.140000 -0.392077
v 0.000000 0.140000 -0.399758
v 0.152981 0.140000 -0.369328
v 0.222094 0.140000 -0.332387
v 0.282672 0.140000 -0.282672
v 0.332387 0.140000 -0.222094
v 0.369328 0.140000 -0.152981
v 0.392077 0.140000 -0.077989
v 0.399758 0.140000 -0.000000
v 0.392077 0.140000 0.077989
v 0.369328 0.140000 0.152981
v 0.332387 0.140000 0.222094
v 0.282672 0.140000 0.282672
v 0.222094 0.140000 0.332387
v 0.152981 0.140000 0.369328
v 0.077989 0.140000 0.392077
v 0.000000 0.140000 0.399758
v -0.077989 0.140000 0.392077
v -0.152981 0.140000 0.369328
v -0.222094 0.140000 0.332387
v -0.282672 0.140000 0.282672
v -0.332387 0.140000 0.222094
v -0.369328 0.140000 0.152981
v -0.392077 0.140000 0.077989
v -0.399758 0.140000 -0.000000
v -0.392077 0.140000 -0.077989
v -0.369328 0.140000 -0.152981
v -0.332387 0.140000 -0.222094
v -0.282672 0.140000 -0.282672
v -0.222094 0.140000 -0.332387
v -0.152981 0.140000 -0.369328
v -0.077989 0.140000 -0.392077
v -0.000000 0.000000 -0.600000
v -0.000000 0.100000 -0.600000
v 0.519615 0.000000 -0.300000
v 0.519615 0.100000 -0.300000
v 0.519615 0.000000 0.300000
v 0.519615 0.100000 0.300000
v -0.000000 0.000000 0.600000
v -0.000000 0.100000 0.600000
v -0.519615 0.000000 0.300000
v -0.519615 0.100000 0.300000
v -0.519615 0.000000 -0.300000
v -0.519615 0.100000 -0.300000
v -0.173205 0.000000 0.500000
v -0.346410 0.000000 0.400000
v -0.346410 0.150000 0.400000
v -0.173205 0.150000 0.500000
v 0.346410 0.000000 0.400000
v 0.173205 0.000000 0.500000
v 0.173205 0.150000 0.500000
v 0.346410 0.150000 0.400000
v -0.519615 0.000000 0.100000
v -0.519615 0.000000 -0.100000
v -0.519615 0.150000 -0.100000
v -0.519615 0.150000 0.100000
v -0.346410 0.000000 -0.400000
v -0.173205 0.000000 -0.500000
v -0.173205 0.150000 -0.500000
v -0.346410 0.150000 -0.400000
v 0.173205 0.000000 -0.500000
v 0.346410 0.000000 -0.400000
v 0.346410 0.150000 -0.400000
v 0.173205 0.150000 -0.500000
v 0.519615 0.000000 -0.100000
v 0.519615 0.000000 0.100000
v 0.519615 0.150000 0.100000
v 0.519615 0.150000 -0.100000
v 0.057735 0.100000 -0.100000
v -0.173205 0.100000 -0.100000
v -0.057735 0.100000 0.100000
v 0.173205 0.100000 0.100000
v 0.000000 0.100000 -0.200000
v -0.173205 0.100000 0.100000
v -0.115470 0.100000 0.000000
v -0.057735 0.100000 -0.100000
v 0.000000 0.100000 0.200000
v 0.173205 0.100000 -0.100000
v 0.057735 0.100000 0.100000
v 0.115470 0.100000 0.000000
v -0.173205 0.000000 0.100000
v 0.057735 0.000000 0.100000
v 0.173205 0.000000 -0.100000
v -0.057735 0.000000 -0.100000
v -0.173205 0.000000 -0.100000
v -0.115470 0.000000 -0.000000
v -0.057735 0.000000 0.100000
v 0.000000 0.000000 0.200000
v 0.115470 0.000000 0.000000
v 0.000000 0.000000 -0.200000
v 0.173205 0.000000 0.100000
v 0.057735 0.000000 -0.100000
v -0.519615 0.150000 -0.000000
v 0.519615 0.150000 0.000000
v -0.519615 0.000000 -0.000000
v 0.519615 0.000000 0.000000
v -0.202542 -0.000000 0.550813
v -0.375747 -0.000000 0.450813
v -0.375747 0.150000 0.450813
v -0.202542 0.150000 0.550813
v 0.375747 0.000000 0.450813
v 0.202542 0.000000 0.550813
v 0.202542 0.150000 0.550813
v 0.375747 0.150000 0.450813
v -0.578289 0.000000 -0.000000
v -0.578289 0.000000 -0.100000
v -0.578289 0.150000 -0.000000
v -0.578289 0.150000 0.100000
v -0.578289 0.000000 0.100000
v -0.578289 0.150000 -0.100000
v -0.375747 0.000000 -0.450813
v -0.202542 0.000000 -0.550813
v -0.202542 0.150000 -0.550813
v -0.375747 0.150000 -0.450813
v 0.202542 -0.000000 -0.550813
v 0.375747 -0.000000 -0.450813
v 0.375747 0.150000 -0.450813
v 0.202542 0.150000 -0.550813
v 0.578289 0.000000 0.000000
v 0.578289 0.000000 0.100000
v 0.578289 0.150000 0.000000
v 0.578289 0.150000 -0.100000
v 0.578289 0.000000 -0.100000
v 0.578289 0.150000 0.100000
vn -0.0000 -0.0000 -1.0000
vn 0.1951 -0.0000 -0.9808
vn 0.3827 -0.0000 -0.9239
vn 0.5556 -0.0000 -0.8315
vn 0.7071 -0.0000 -0.7071
vn 0.8315 -0.0000 -0.5556
vn 0.9239 -0.0000 -0.3827
vn 0.9808 -0.0000 -0.1951
vn 1.0000 -0.0000 -0.0000
vn 0.9808 -0.0000 0.1951
vn 0.9239 -0.0000 0.3827
vn 0.8315 -0.0000 0.5556
vn 0.7071 -0.0000 0.7071
vn 0.5556 -0.0000 0.8315
vn 0.3827 -0.0000 0.9239
vn 0.1951 -0.0000 0.9808
vn -0.0000 -0.0000 1.0000
vn -0.1951 -0.0000 0.9808
vn -0.3827 -0.0000 0.9239
vn -0.5556 -0.0000 0.8315
vn -0.7071 -0.0000 0.7071
vn -0.8315 -0.0000 0.5556
vn -0.9239 -0.0000 0.3827
vn -0.9808 -0.0000 0.1951
vn -1.0000 -0.0000 -0.0000
vn -0.9808 -0.0000 -0.1951
vn -0.9239 -0.0000 -0.3827
vn -0.8315 -0.0000 -0.5556
vn -0.7071 -0.0000 -0.7071
vn -0.5556 -0.0000 -0.8315
vn -0.3827 -0.0000 -0.9239
vn -0.1951 -0.0000 -0.9808
vn -0.0000 -1.0000 -0.0000
vn -0.0000 1.0000 -0.0000
vn 0.5000 -0.0000 -0.8660
vn 0.5000 -0.0000 0.8660
vn -0.5000 -0.0000 0.8660
vn -0.5000 -0.0000 -0.8660
vn 0.8660 -0.0000 0.5000
vn -0.0660 0.9912 -0.1144
vn 0.0660 0.9912 0.1144
vn -0.1320 0.9905 -0.0381
vn 0.1320 0.9905 0.0381
vn -0.0660 0.9912 0.1144
vn 0.0660 0.9912 -0.1144
vn 0.1320 0.9905 -0.0381
vn -0.1320 0.9905 0.0381
vn -0.8660 -0.0000 -0.5000
vn -0.8660 -0.0000 0.5000
vn 0.8660 -0.0000 -0.5000
vt 1.000000 0.500000
vt 1.000000 1.000000
vt 0.968750 1.000000
vt 0.968750 0.500000
vt 0.937500 1.000000
vt 0.937500 0.500000
vt 0.906250 1.000000
vt 0.906250 0.500000
vt 0.875000 1.000000
vt 0.875000 0.500000
vt 0.843750 1.000000
vt 0.843750 0.500000
vt 0.812500 1.000000
vt 0.812500 0.500000
vt 0.781250 1.000000
vt 0.781250 0.500000
vt 0.750000 1.000000
vt 0.750000 0.500000
vt 0.718750 1.000000
vt 0.718750 0.500000
vt 0.687500 1.000000
vt 0.687500 0.500000
vt 0.656250 1.000000
vt 0.656250 0.500000
vt 0.625000 1.000000
vt 0.625000 0.500000
vt 0.593750 1.000000
vt 0.593750 0.500000
vt 0.562500 1.000000
vt 0.562500 0.500000
vt 0.531250 1.000000
vt 0.531250 0.500000
vt 0.500000 1.000000
vt 0.500000 0.500000
vt 0.468750 1.000000
vt 0.468750 0.500000
vt 0.437500 1.000000
vt 0.437500 0.500000
vt 0.406250 1.000000
vt 0.406250 0.500000
vt 0.375000 1.000000
vt 0.375000 0.500000
vt 0.343750 1.000000
vt 0.343750 0.500000
vt 0.312500 1.000000
vt 0.312500 0.500000
vt 0.281250 1.000000
vt 0.281250 0.500000
vt 0.250000 1.000000
vt 0.250000 0.500000
vt 0.218750 1.000000
vt 0.218750 0.500000
vt 0.187500 1.000000
vt 0.187500 0.500000
vt 0.156250 1.000000
vt 0.156250 0.500000
vt 0.125000 1.000000
vt 0.125000 0.500000
vt 0.093750 1.000000
vt 0.093750 0.500000
vt 0.062500 1.000000
vt 0.062500 0.500000
vt 0.427273 0.368450
vt 0.400758 0.400758
vt 0.031250 1.000000
vt 0.031250 0.500000
vt 0.000000 1.000000
vt 0.000000 0.500000
vt 0.750000 0.490000
vt 0.796822 0.485388
vt 0.841844 0.471731
vt 0.883337 0.449553
vt 0.919706 0.419706
vt 0.949553 0.383337
vt 0.971731 0.341844
vt 0.985388 0.296822
vt 0.990000 0.250000
vt 0.985388 0.203178
vt 0.971731 0.158156
vt 0.949553 0.116663
vt 0.919706 0.080294
vt 0.883337 0.050447
vt 0.841844 0.028269
vt 0.796822 0.014612
vt 0.750000 0.010000
vt 0.703178 0.014612
vt 0.658156 0.028269
vt 0.616663 0.050447
vt 0.580294 0.080294
vt 0.550447 0.116663
vt 0.528269 0.158156
vt 0.514612 0.203178
vt 0.510000 0.250000
vt 0.514612 0.296822
vt 0.528269 0.341844
vt 0.550447 0.383337
vt 0.580294 0.419706
vt 0.616663 0.449553
vt 0.658156 0.471731
vt 0.703178 0.485388
vt 0.250000 0.463204
vt 0.291594 0.459107
vt 0.296822 0.485388
vt 0.250000 0.490000
vt 0.331590 0.446975
vt 0.341844 0.471731
vt 0.368450 0.427273
vt 0.383337 0.449553
vt 0.419706 0.419706
vt 0.449553 0.383337
vt 0.446975 0.331590
vt 0.471731 0.341844
vt 0.459108 0.291594
vt 0.485388 0.296822
vt 0.463204 0.250000
vt 0.490000 0.250000
vt 0.459108 0.208406
vt 0.485388 0.203178
vt 0.446975 0.168410
vt 0.471731 0.158156
vt 0.427273 0.131550
vt 0.449553 0.116663
vt 0.400758 0.099242
vt 0.419706 0.080294
vt 0.368450 0.072727
vt 0.383337 0.050447
vt 0.331590 0.053025
vt 0.341844 0.028269
vt 0.291594 0.040892
vt 0.296822 0.014612
vt 0.250000 0.036796
vt 0.250000 0.010000
vt 0.208406 0.040892
vt 0.203178 0.014612
vt 0.168410 0.053025
vt 0.158156 0.028269
vt 0.131550 0.072727
vt 0.116663 0.050447
vt 0.099242 0.099242
vt 0.080294 0.080294
vt 0.072727 0.131550
vt 0.050447 0.116663
vt 0.053025 0.168410
vt 0.028269 0.158156
vt 0.040892 0.208406
vt 0.014612 0.203178
vt 0.036796 0.250000
vt 0.010000 0.250000
vt 0.040892 0.291594
vt 0.014612 0.296822
vt 0.053025 0.331590
vt 0.028269 0.341844
vt 0.072727 0.368450
vt 0.050447 0.383337
vt 0.099242 0.400758
vt 0.080294 0.419706
vt 0.131550 0.427273
vt 0.116663 0.449553
vt 0.168410 0.446975
vt 0.158156 0.471731
vt 0.208406 0.459107
vt 0.203178 0.485388
vt 0.888889 0.500000
vt 0.888889 1.000000
vt 0.833333 1.000000
vt 0.833333 0.500000
vt 0.722222 0.500000
vt 0.722222 1.000000
vt 0.666667 1.000000
vt 0.666667 0.500000
vt 0.555555 0.500000
vt 0.555555 1.000000
vt 0.500000 1.000000
vt 0.500000 0.500000
vt 0.388889 0.500000
vt 0.388889 1.000000
vt 0.333333 1.000000
vt 0.333333 0.500000
vt 0.457846 0.370000
vt 0.388564 0.410000
vt 0.319282 0.290000
vt 0.457846 0.290000
vt 0.222222 0.500000
vt 0.222222 1.000000
vt 0.166667 1.000000
vt 0.166667 0.500000
vt 0.055555 0.500000
vt 0.055555 1.000000
vt -0.000000 1.000000
vt -0.000000 0.500000
vt 0.819282 0.450000
vt 0.750000 0.330000
vt 0.680718 0.450000
vt 0.444444 1.000000
vt 0.444444 0.500000
vt 0.611111 1.000000
vt 0.611111 0.500000
vt 0.180718 0.050000
vt 0.111436 0.090000
vt 0.277778 1.000000
vt 0.277778 0.500000
vt 0.111111 1.000000
vt 0.111111 0.500000
vt 0.944444 1.000000
vt 0.944444 0.500000
vt 0.042154 0.250000
vt 0.042154 0.290000
vt 0.777778 1.000000
vt 0.777778 0.500000
vt 0.042154 0.210000
vt 0.319282 0.050000
vt 0.250000 0.170000
vt 0.388564 0.090000
vt 0.319282 0.210000
vt 0.273094 0.210000
vt 0.180718 0.290000
vt 0.226906 0.290000
vt 0.250000 0.330000
vt 0.180718 0.450000
vt 0.111436 0.410000
vt 0.296188 0.250000
vt 0.457846 0.250000
vt 0.042154 0.370000
vt 0.457846 0.210000
vt 0.457846 0.130000
vt 0.226906 0.210000
vt 0.203812 0.250000
vt 0.180718 0.210000
vt 0.273094 0.290000
vt 0.319282 0.450000
vt 0.042154 0.130000
vt 0.611436 0.090000
vt 0.680718 0.210000
vt 0.726906 0.210000
vt 0.750000 0.170000
vt 0.680718 0.050000
vt 0.819282 0.050000
vt 0.957846 0.210000
vt 0.819282 0.210000
vt 0.796188 0.250000
vt 0.957846 0.250000
vt 0.773094 0.210000
vt 0.703812 0.250000
vt 0.542154 0.210000
vt 0.542154 0.130000
vt 0.819282 0.290000
vt 0.773094 0.290000
vt 0.888564 0.410000
vt 0.957846 0.290000
vt 0.957846 0.370000
vt 0.542154 0.290000
vt 0.680718 0.290000
vt 0.542154 0.250000
vt 0.888564 0.090000
vt 0.726906 0.290000
vt 0.611436 0.410000
vt 0.542154 0.370000
vt 0.957846 0.130000
vt 0.250000 1.000000
vt 0.250000 0.500000
vt 0.750000 0.500000
s 1
usemtl Metal
f 1/1/1 66/2/1 65/3/2 3/4/2
f 3/4/2 65/3/2 67/5/3 5/6/3
f 5/6/3 67/5/3 68/7/4 7/8/4
f 7/8/4 68/7/4 69/9/5 9/10/5
f 9/10/5 69/9/5 70/11/6 11/12/6
f 11/12/6 70/11/6 71/13/7 13/14/7
f 13/14/7 71/13/7 72/15/8 15/16/8
f 15/16/8 72/15/8 73/17/9 17/18/9
f 17/18/9 73/17/9 74/19/10 19/20/10
f 19/20/10 74/19/10 75/21/11 21/22/11
f 21/22/11 75/21/11 76/23/12 23/24/12
f 23/24/12 76/23/12 77/25/13 25/26/13
f 25/26/13 77/25/13 78/27/14 27/28/14
f 27/28/14 78/27/14 79/29/15 29/30/15
f 29/30/15 79/29/15 80/31/16 31/32/16
f 31/32/16 80/31/16 81/33/17 33/34/17
f 33/34/17 81/33/17 82/35/18 35/36/18
f 35/36/18 82/35/18 83/37/19 37/38/19
f 37/38/19 83/37/19 84/39/20 39/40/20
f 39/40/20 84/39/20 85/41/21 41/42/21
f 41/42/21 85/41/21 86/43/22 43/44/22
f 43/44/22 86/43/22 87/45/23 45/46/23
f 45/46/23 87/45/23 88/47/24 47/48/24
f 47/48/24 88/47/24 89/49/25 49/50/25
f 49/50/25 89/49/25 90/51/26 51/52/26
f 51/52/26 90/51/26 91/53/27 53/54/27
f 53/54/27 91/53/27 92/55/28 55/56/28
f 55/56/28 92/55/28 93/57/29 57/58/29
f 57/58/29 93/57/29 94/59/30 59/60/30
f 59/60/30 94/59/30 95/61/31 61/62/31
f 12/63/22 10/64/21 101/64/21 102/63/22
f 61/62/31 95/61/31 96/65/32 63/66/32
f 63/66/32 96/65/32 66/67/1 1/68/1
f 1/69/33 3/70/33 5/71/33 7/72/33 9/73/33 11/74/33 13/75/33 15/76/33 17/77/33 19/78/33 21/79/33 23/80/33 25/81/33 27/82/33 29/83/33 31/84/33 33/85/33 35/86/33 37/87/33 39/88/33 41/89/33 43/90/33 45/91/33 47/92/33 49/93/33 51/94/33 53/95/33 55/96/33 57/97/33 59/98/33 61/99/33 63/100/33
f 2/101/34 4/102/34 65/103/34 66/104/34
f 4/102/34 6/105/34 67/106/34 65/103/34
f 6/105/34 8/107/34 68/108/34 67/106/34
f 8/107/34 10/64/34 69/109/34 68/108/34
f 10/64/34 12/63/34 70/110/34 69/109/34
f 12/63/34 14/111/34 71/112/34 70/110/34
f 14/111/34 16/113/34 72/114/34 71/112/34
f 16/113/34 18/115/34 73/116/34 72/114/34
f 18/115/34 20/117/34 74/118/34 73/116/34
f 20/117/34 22/119/34 75/120/34 74/118/34
f 22/119/34 24/121/34 76/122/34 75/120/34
f 24/121/34 26/123/34 77/124/34 76/122/34
f 26/123/34 28/125/34 78/126/34 77/124/34
f 28/125/34 30/127/34 79/128/34 78/126/34
f 30/127/34 32/129/34 80/130/34 79/128/34
f 32/129/34 34/131/34 81/132/34 80/130/34
f 34/131/34 36/133/34 82/134/34 81/132/34
f 36/133/34 38/135/34 83/136/34 82/134/34
f 38/135/34 40/137/34 84/138/34 83/136/34
f 40/137/34 42/139/34 85/140/34 84/138/34
f 42/139/34 44/141/34 86/142/34 85/140/34
f 44/141/34 46/143/34 87/144/34 86/142/34
f 46/143/34 48/145/34 88/146/34 87/144/34
f 48/145/34 50/147/34 89/148/34 88/146/34
f 50/147/34 52/149/34 90/150/34 89/148/34
f 52/149/34 54/151/34 91/152/34 90/150/34
f 54/151/34 56/153/34 92/154/34 91/152/34
f 56/153/34 58/155/34 93/156/34 92/154/34
f 58/155/34 60/157/34 94/158/34 93/156/34
f 60/157/34 62/159/34 95/160/34 94/158/34
f 62/159/34 64/161/34 96/162/34 95/160/34
f 64/161/34 2/101/34 66/104/34 96/162/34
f 2/101/17 64/161/16 128/161/16 98/101/17
f 40/137/4 38/135/3 115/135/3 116/137/4
f 14/111/23 12/63/22 102/63/22 103/111/23
f 42/139/5 40/137/4 116/137/4 117/139/5
f 16/113/24 14/111/23 103/111/23 104/113/24
f 44/141/6 42/139/5 117/139/5 118/141/6
f 18/115/25 16/113/24 104/113/24 105/115/25
f 46/143/7 44/141/6 118/141/6 119/143/7
f 20/117/26 18/115/25 105/115/25 106/117/26
f 48/145/8 46/143/7 119/143/7 120/145/8
f 22/119/27 20/117/26 106/117/26 107/119/27
f 50/147/9 48/145/8 120/145/8 121/147/9
f 24/121/28 22/119/27 107/119/27 108/121/28
f 52/149/10 50/147/9 121/147/9 122/149/10
f 26/123/29 24/121/28 108/121/28 109/123/29
f 54/151/11 52/149/10 122/149/10 123/151/11
f 28/125/30 26/123/29 109/123/29 110/125/30
f 56/153/12 54/151/11 123/151/11 124/153/12
f 30/127/31 28/125/30 110/125/30 111/127/31
f 4/102/18 2/101/17 98/101/17 97/102/18
f 58/155/13 56/153/12 124/153/12 125/155/13
f 32/129/32 30/127/31 111/127/31 112/129/32
f 6/105/19 4/102/18 97/102/18 99/105/19
f 60/157/14 58/155/13 125/155/13 126/157/14
f 34/131/1 32/129/32 112/129/32 113/131/1
f 8/107/20 6/105/19 99/105/19 100/107/20
f 62/159/15 60/157/14 126/157/14 127/159/15
f 36/133/2 34/131/1 113/131/1 114/133/2
f 10/64/21 8/107/20 100/107/20 101/64/21
f 64/161/16 62/159/15 127/159/15 128/161/16
f 38/135/3 36/133/2 114/133/2 115/135/3
f 158/163/35 159/164/35 132/165/35 131/166/35
f 162/167/9 163/168/9 134/169/9 133/170/9
f 146/171/36 147/172/36 136/173/36 135/174/36
f 142/175/37 143/176/37 138/177/37 137/178/37
f 132/179/34 159/180/34 174/181/34 164/182/34
f 150/183/25 151/184/25 140/185/25 139/186/25
f 154/187/38 155/188/38 130/189/38 129/190/38
f 129/69/33 157/191/33 186/192/33 154/193/33
f 135/174/37 136/173/37 144/194/37 141/195/37
f 151/184/1 150/183/1 202/183/1 206/184/1
f 133/170/36 134/169/36 148/196/36 145/197/36
f 144/198/34 143/199/34 195/199/34 196/198/34
f 137/178/25 138/177/25 152/200/25 149/201/25
f 149/201/17 152/200/17 204/200/17 205/201/17
f 139/186/38 140/185/38 156/202/38 153/203/38
f 159/164/39 158/163/39 212/163/39 213/164/39
f 129/1/35 130/2/35 160/204/35 157/205/35
f 189/206/34 151/207/34 206/207/34 203/206/34
f 131/166/9 132/165/9 164/208/9 161/209/9
f 152/210/34 189/206/34 203/206/34 204/210/34
f 147/211/34 173/212/34 144/198/34 136/132/34
f 148/213/40 168/214/40 175/215/40 173/212/40 147/211/40
f 166/216/41 172/217/41 169/218/41 155/219/41 156/220/41
f 164/182/42 174/181/42 176/221/42 190/222/42
f 151/207/34 166/216/34 156/220/34 140/223/34
f 163/224/34 168/214/34 148/213/34 134/225/34
f 167/226/34 175/215/34 176/221/34 171/227/34
f 152/210/43 170/228/43 171/227/43 189/206/43
f 171/227/34 172/217/34 166/216/34
f 169/218/34 172/217/34 165/229/34
f 171/227/34 170/228/34 167/226/34
f 169/218/34 160/230/34 130/104/34 155/219/34
f 143/199/34 170/228/34 152/210/34 138/231/34
f 173/212/34 175/215/34 167/226/34
f 176/221/34 175/215/34 168/214/34
f 176/221/34 174/181/34 165/229/34
f 174/181/44 159/180/44 160/230/44 169/218/44 165/229/44
f 144/198/45 173/212/45 167/226/45 170/228/45 143/199/45
f 142/232/33 177/233/33 183/234/33 184/235/33 141/236/33
f 141/236/33 184/235/33 146/237/33 135/85/33
f 162/238/33 187/239/33 185/240/33 192/241/33
f 178/242/33 183/234/33 182/243/33 185/240/33
f 149/244/33 177/233/33 142/232/33 137/245/33
f 179/246/33 188/247/33 186/192/33 157/191/33 158/248/33
f 161/249/33 179/246/33 158/248/33 131/250/33
f 150/251/33 181/252/33 182/243/33 191/253/33
f 146/237/33 184/235/33 178/242/33 187/239/33 145/254/33
f 182/243/33 181/252/33 180/255/33
f 182/243/33 183/234/33 177/233/33
f 184/235/33 183/234/33 178/242/33
f 153/256/33 181/252/33 150/251/33 139/257/33
f 185/240/33 187/239/33 178/242/33
f 185/240/33 188/247/33 179/246/33
f 145/254/33 187/239/33 162/238/33 133/258/33
f 154/193/33 186/192/33 180/255/33 181/252/33 153/256/33
f 186/192/33 188/247/33 180/255/33
f 193/195/37 196/194/37 195/176/37 194/175/37
f 189/206/46 171/227/46 166/216/46 151/207/46
f 171/227/34 176/221/34 165/229/34 172/217/34
f 190/222/47 176/221/47 168/214/47 163/224/47
f 185/240/33 182/243/33 180/255/33 188/247/33
f 191/253/33 182/243/33 177/233/33 149/244/33
f 192/241/33 185/240/33 179/246/33 161/249/33
f 157/205/48 160/204/48 214/204/48 211/205/48
f 142/232/33 141/236/33 193/236/33 194/232/33
f 197/197/36 200/196/36 199/172/36 198/171/36
f 205/201/25 204/200/25 203/259/25 201/260/25
f 207/203/38 210/202/38 209/188/38 208/187/38
f 211/205/35 214/204/35 213/164/35 212/163/35
f 219/209/9 218/208/9 217/17/9 215/261/9
f 215/261/9 217/17/9 220/168/9 216/167/9
f 201/260/25 203/259/25 206/184/25 202/183/25
f 141/195/39 144/194/39 196/194/39 193/195/39
f 162/238/33 192/241/33 215/241/33 216/238/33
f 143/176/48 142/175/48 194/175/48 195/176/48
f 190/222/34 163/224/34 220/224/34 217/222/34
f 154/193/33 153/256/33 207/256/33 208/193/33
f 164/182/34 190/222/34 217/222/34 218/182/34
f 146/237/33 145/254/33 197/254/33 198/237/33
f 161/209/1 164/208/1 218/208/1 219/209/1
f 156/220/34 155/219/34 209/219/34 210/220/34
f 191/253/33 149/244/33 205/244/33 201/253/33
f 163/168/17 162/167/17 216/167/17 220/168/17
f 153/203/49 156/202/49 210/202/49 207/203/49
f 148/213/34 147/211/34 199/211/34 200/213/34
f 155/188/50 154/187/50 208/187/50 209/188/50
f 145/197/50 148/196/50 200/196/50 197/197/50
f 192/241/33 161/249/33 219/249/33 215/241/33
f 147/172/49 146/171/49 198/171/49 199/172/49
f 158/248/33 157/191/33 211/191/33 212/248/33
f 150/251/33 191/253/33 201/253/33 202/251/33
f 160/230/34 159/180/34 213/180/34 214/230/34
usemtl Teleport
f 97/102/34 98/101/34 128/161/34 127/159/34 126/157/34 125/155/34 124/153/34 123/151/34 122/149/34 121/147/34 120/145/34 119/143/34 118/141/34 117/139/34 116/137/34 115/135/34 114/133/34 113/131/34 112/129/34 111/127/34 110/125/34 109/123/34 108/121/34 107/119/34 106/117/34 105/115/34 104/113/34 103/111/34 102/63/34 101/64/34 100/107/34 99/105/34
